<svg width="394" height="247" viewBox="0 0 394 247" fill="none" xmlns="http://www.w3.org/2000/svg">
<g clip-path="url(#clip0)">
<path opacity="0.1" d="M391.532 170.147C387.579 179.637 379.308 188.209 370.429 196.327C362.624 203.465 354.275 210.362 345.383 217.019C342.919 218.867 340.415 220.692 337.872 222.493L336.105 223.737C334.539 224.844 332.946 225.94 331.326 227.025L331.131 227.157C329.56 228.224 327.975 229.281 326.376 230.327C321.146 233.757 315.617 237.163 309.504 239.984C307.422 240.947 305.273 241.844 303.048 242.648C301.845 243.085 300.616 243.494 299.362 243.875C297.307 244.498 295.197 245.042 292.993 245.489C292.625 245.566 292.254 245.638 291.882 245.708C289.626 246.13 287.342 246.439 285.034 246.65C276.576 247.423 267.839 246.858 259.367 245.534C255.132 244.873 250.964 244.02 246.931 243.05C246.434 242.932 245.942 242.811 245.445 242.704C231.711 239.273 218.816 234.617 204.985 231.342C200.218 230.213 195.359 229.254 190.407 228.467C187.991 228.083 185.562 227.737 183.118 227.427C177.367 226.713 171.543 226.235 165.694 225.993C157.808 225.646 149.666 225.795 142.161 227.171C141.162 227.353 140.175 227.559 139.201 227.788C137.965 228.076 136.753 228.405 135.563 228.775C132.357 229.809 129.236 231.092 126.23 232.611C125.636 232.902 125.05 233.196 124.463 233.494C122.624 234.43 120.808 235.386 118.965 236.314C115.648 238.048 112.196 239.51 108.643 240.687C106.697 241.301 104.717 241.805 102.715 242.198C97.4145 243.258 91.7742 243.677 86.1097 243.705C83.3781 243.705 80.643 243.646 77.9392 243.504H77.8559C76.9326 243.455 76.0059 243.4 75.0792 243.331C70.8586 243.043 66.6518 242.6 62.5076 241.993C48.3081 239.914 34.841 235.985 24.0082 229.991C9.29507 221.856 -0.0486058 209.725 1.35364 197.606C2.3602 188.874 8.61131 180.767 14.5431 172.829C25.5771 158.048 35.9135 142.931 41.3524 126.996C45.7639 114.062 47.0794 100.386 57.2318 88.7617C60.484 85.0405 64.6422 81.645 69.4841 78.6687C73.1033 76.4568 76.8968 74.5425 80.827 72.9448C85.269 71.1286 89.8386 69.6405 94.4989 68.4925C98.5379 67.4923 102.631 66.7241 106.758 66.1919C109 65.9009 111.27 65.6756 113.554 65.5232C115.313 65.4008 117.079 65.3234 118.854 65.291H119.128C120.214 65.2703 121.299 65.2703 122.384 65.291C130.297 65.4133 138.189 66.1536 145.986 67.5051C150.866 68.3193 155.705 69.3172 160.443 70.4155C163.27 71.0692 166.072 71.7541 168.849 72.4701C169.696 72.6884 170.543 72.9102 171.38 73.1354C191.136 78.4192 208.518 85.7161 227.553 91.7034C227.65 91.7345 227.744 91.7657 227.841 91.79C231.747 92.9893 235.714 93.9839 239.725 94.7697C242.672 95.3587 245.685 95.8681 248.749 96.315C253.442 97.008 258.235 97.5554 263.064 98.0266L264.129 98.1306C271.213 98.8236 278.36 99.3398 285.302 99.9427C287.766 100.158 290.209 100.379 292.618 100.636C294.145 100.788 295.659 100.95 297.158 101.121C298.234 101.245 299.314 101.37 300.393 101.502C301.473 101.634 302.615 101.772 303.725 101.914C304.447 102.004 305.166 102.098 305.888 102.198C310.261 102.777 314.624 103.425 318.938 104.166C321.562 104.617 324.172 105.102 326.751 105.625C328.619 106.004 330.47 106.403 332.305 106.824C333.665 107.131 335.014 107.454 336.352 107.794C347.219 110.521 357.389 114.096 366.153 118.923C388.912 131.427 399.095 151.998 391.532 170.147Z" fill="#FF7F50"/>
<path opacity="0.1" d="M86.4221 31.322C90.5684 31.322 93.9297 27.9666 93.9297 23.8276C93.9297 19.6885 90.5684 16.3332 86.4221 16.3332C82.2758 16.3332 78.9145 19.6885 78.9145 23.8276C78.9145 27.9666 82.2758 31.322 86.4221 31.322Z" fill="#FF7F50"/>
<path opacity="0.1" d="M239.874 14.9888C244.021 14.9888 247.382 11.6334 247.382 7.4944C247.382 3.35536 244.021 0 239.874 0C235.728 0 232.367 3.35536 232.367 7.4944C232.367 11.6334 235.728 14.9888 239.874 14.9888Z" fill="#FF7F50"/>
<path opacity="0.1" d="M330.864 31.7724C335.011 31.7724 338.372 28.417 338.372 24.278C338.372 20.1389 335.011 16.7836 330.864 16.7836C326.718 16.7836 323.357 20.1389 323.357 24.278C323.357 28.417 326.718 31.7724 330.864 31.7724Z" fill="#FF7F50"/>
<path opacity="0.1" d="M12.582 54.5189C19.5309 54.5189 25.1641 48.8956 25.1641 41.959C25.1641 35.0223 19.5309 29.399 12.582 29.399C5.63317 29.399 0 35.0223 0 41.959C0 48.8956 5.63317 54.5189 12.582 54.5189Z" fill="#FF7F50"/>
<path opacity="0.1" d="M24.6434 116.539C31.5923 116.539 37.2255 110.916 37.2255 103.979C37.2255 97.0425 31.5923 91.4193 24.6434 91.4193C17.6946 91.4193 12.0614 97.0425 12.0614 103.979C12.0614 110.916 17.6946 116.539 24.6434 116.539Z" fill="#FF7F50"/>
<path opacity="0.1" d="M362.335 93.7095C369.284 93.7095 374.917 88.0862 374.917 81.1495C374.917 74.2128 369.284 68.5896 362.335 68.5896C355.386 68.5896 349.753 74.2128 349.753 81.1495C349.753 88.0862 355.386 93.7095 362.335 93.7095Z" fill="#FF7F50"/>
<path d="M122.992 82.9305C123.054 83.985 122.992 85.0432 122.808 86.0834C122.113 89.3023 119.177 91.5128 116.334 93.1898C113.492 94.8667 110.368 96.4536 108.678 99.2844C106.64 102.704 107.289 107.302 109.681 110.497C112.072 113.691 115.862 115.593 119.764 116.387C126.879 117.852 134.671 115.794 140.006 110.874C145.341 105.954 148.017 98.2657 146.708 91.1247C143.814 91.5301 141.235 88.98 140.297 86.2151C139.36 83.4502 139.555 80.4531 139.19 77.5531C139.164 77.0627 139.016 76.5865 138.76 76.1671C138.354 75.6058 137.635 75.3771 136.965 75.1935C133.619 74.2753 127.99 72.2657 124.522 73.0349C121.398 73.7487 122.939 80.311 122.992 82.9305Z" fill="#BE6F72"/>
<path opacity="0.1" d="M122.992 82.9305C123.054 83.985 122.992 85.0432 122.808 86.0834C122.113 89.3023 119.177 91.5128 116.334 93.1898C113.492 94.8667 110.368 96.4536 108.678 99.2844C106.64 102.704 107.289 107.302 109.681 110.497C112.072 113.691 115.862 115.593 119.764 116.387C126.879 117.852 134.671 115.794 140.006 110.874C145.341 105.954 148.017 98.2657 146.708 91.1247C143.814 91.5301 141.235 88.98 140.297 86.2151C139.36 83.4502 139.555 80.4531 139.19 77.5531C139.164 77.0627 139.016 76.5865 138.76 76.1671C138.354 75.6058 137.635 75.3771 136.965 75.1935C133.619 74.2753 127.99 72.2657 124.522 73.0349C121.398 73.7487 122.939 80.311 122.992 82.9305Z" fill="black"/>
<path d="M118.948 236.321C115.631 238.055 112.179 239.517 108.625 240.694C106.679 241.308 104.7 241.812 102.697 242.205C102.555 239.541 102.701 236.869 103.131 234.236C103.402 232.722 103.801 231.221 103.905 229.686C104.052 227.471 103.578 225.258 102.534 223.297C106.401 222.771 110.073 221.911 113.957 222.164L114.203 222.182C114.665 222.193 115.122 222.279 115.557 222.434C116.154 222.723 116.662 223.169 117.025 223.723C117.225 223.996 117.409 224.279 117.577 224.572C118.674 226.464 119.09 228.647 119.177 230.896C119.218 232.707 119.141 234.52 118.948 236.321Z" fill="#BE6F72"/>
<path d="M139.187 227.791C137.951 228.08 136.739 228.409 135.549 228.779C132.343 229.813 129.222 231.095 126.216 232.614C126.021 231.67 125.925 230.709 125.931 229.745C127.703 228.526 129.702 227.674 131.81 227.241C133.918 226.809 136.091 226.804 138.201 227.226C138.483 227.26 138.751 227.368 138.979 227.538C139.061 227.611 139.131 227.696 139.187 227.791Z" fill="#BE6F72"/>
<path d="M145.153 210.301C144.917 212.567 144.57 214.84 143.765 216.97C142.894 219.257 141.478 221.475 141.658 223.917C141.738 224.978 142.099 226.128 142.151 227.178C141.151 227.36 140.164 227.566 139.19 227.795C137.955 228.083 136.742 228.412 135.553 228.782C132.346 229.816 129.226 231.099 126.22 232.618C125.626 232.909 125.039 233.203 124.453 233.501C124.21 233.47 123.97 233.432 123.727 233.387C121.992 233.071 120.166 232.295 119.184 230.909C118.959 230.59 118.783 230.24 118.66 229.87C118.094 228.183 118.684 226.079 117.508 224.742L117.452 224.791L117.41 224.818C116.766 225.401 116.058 225.91 115.3 226.336C113.575 227.311 111.664 227.912 109.69 228.102C107.717 228.292 105.726 228.066 103.846 227.438C103.101 227.185 102.382 226.862 101.698 226.474C100.108 225.57 98.5738 224.049 98.6987 222.234C98.7681 221.222 99.3478 220.252 99.1916 219.25C99.077 218.533 98.605 217.937 98.251 217.303C95.9289 213.145 98.6987 207.799 97.2409 203.281C97.2062 203.174 97.168 203.066 97.1299 202.962C97.0223 202.668 96.9008 202.384 96.7828 202.099C96.4843 201.438 96.1511 200.786 95.8873 200.107C95.6676 199.536 95.4935 198.949 95.3666 198.35C95.039 196.613 94.9224 194.842 95.0195 193.077C95.0195 188.424 95.8526 183.66 97.0396 179.176C97.2513 178.379 97.4874 177.253 97.7997 176.027C98.1042 174.734 98.5152 173.468 99.0284 172.243C99.7226 170.649 100.667 169.378 101.958 169.076C103.902 168.622 106.873 169.582 108.844 169.818L116.636 170.746L132.217 172.607C134.907 172.929 137.733 173.3 139.95 174.811C140.096 174.911 140.239 175.015 140.381 175.126C140.967 175.587 141.492 176.12 141.943 176.713C142.102 176.917 142.255 177.132 142.401 177.35C142.906 178.123 143.336 178.942 143.685 179.796C145.618 184.432 145.664 189.605 145.677 194.626C145.677 199.865 145.695 205.1 145.153 210.301Z" fill="#3F3D56"/>
<path opacity="0.1" d="M115.283 226.357C114.814 224.555 113.825 221.946 113.679 221.236C113.19 218.853 112.836 216.444 112.617 214.022C112.232 209.705 111.538 203.627 113.065 199.522C114.498 200.284 115.758 202.442 116.421 203.915C118.823 209.254 116.119 215.81 118.375 221.211C118.544 221.535 118.649 221.888 118.684 222.251C118.645 222.712 118.479 223.153 118.205 223.526L117.445 224.787L115.283 226.357Z" fill="black"/>
<path d="M165.271 61.5213C167.825 57.3635 171.324 53.275 171.105 48.4139C171.025 46.6815 170.456 44.9872 170.022 43.2894C168.779 38.3758 168.697 33.2409 169.783 28.2902C174.075 27.6019 178.468 28.5841 182.056 31.0344C183.191 31.8174 184.267 32.791 184.767 34.0765C185.228 35.2615 185.152 36.5816 185.069 37.8497C184.878 40.7636 184.618 43.8715 182.82 46.1652C182.261 46.8825 181.574 47.4888 181.029 48.213C180.234 49.2524 179.769 50.5205 179.314 51.7575L173.413 67.7822C170.435 75.8587 167.207 84.306 160.647 89.8947C160.488 90.0299 155.788 83.367 155.399 82.6983C153.827 79.9576 154.514 78.8004 156.416 76.5067C160.168 71.9712 162.206 66.5003 165.271 61.5213Z" fill="#BE6F72"/>
<path d="M97.6505 198.108C97.6304 199.304 97.5295 200.498 97.3485 201.68C97.286 202.117 97.2131 202.55 97.1264 202.983C95.9428 209.15 92.996 215.016 90.9343 221.024C88.2166 228.955 87.0226 235.836 86.075 243.712C83.3434 243.712 80.6083 243.653 77.9045 243.511H77.8212C76.8979 243.462 75.9712 243.407 75.0445 243.338C75.881 235.992 74.3503 228.287 75.8463 220.934C76.4502 217.975 77.4811 215.103 78.1024 212.158C78.2939 211.291 78.4387 210.414 78.5362 209.531C78.623 208.693 78.6681 207.823 79.0464 207.068C79.081 206.995 79.1204 206.924 79.1644 206.857C79.4968 206.334 79.909 205.866 80.3862 205.471C84.6153 201.769 89.788 199.307 95.3319 198.357C96.1198 198.25 96.8869 198.16 97.6505 198.108Z" fill="#FBBEBE"/>
<path opacity="0.1" d="M97.6505 198.108C97.6304 199.304 97.5295 200.498 97.3485 201.68C97.286 202.117 97.2131 202.55 97.1264 202.983C95.9428 209.15 92.996 215.016 90.9343 221.024C88.2166 228.955 87.0226 235.836 86.075 243.712C83.3434 243.712 80.6083 243.653 77.9045 243.511H77.8212C76.8979 243.462 75.9712 243.407 75.0445 243.338C75.881 235.992 74.3503 228.287 75.8463 220.934C76.4502 217.975 77.4811 215.103 78.1024 212.158C78.2939 211.291 78.4387 210.414 78.5362 209.531C78.623 208.693 78.6681 207.823 79.0464 207.068C79.081 206.995 79.1204 206.924 79.1644 206.857C79.4968 206.334 79.909 205.866 80.3862 205.471C84.6153 201.769 89.788 199.307 95.3319 198.357C96.1198 198.25 96.8869 198.16 97.6505 198.108Z" fill="black"/>
<path d="M80.053 213.897C79.9969 215.823 79.8382 217.744 79.5775 219.652C78.6508 227.451 78.4772 235.59 77.842 243.507C76.9188 243.459 75.992 243.403 75.0653 243.334C70.8447 243.047 66.638 242.603 62.4937 241.997C62.813 240.214 63.1347 238.43 63.4586 236.647C63.8543 234.461 64.25 232.254 64.1354 230.036C64.0278 227.94 63.4656 225.899 63.0178 223.845C62.0633 219.444 61.5288 214.697 59.9565 210.547C59.1365 208.219 57.8276 206.092 56.1177 204.31C62.6221 201.76 68.8732 201.614 75.8602 201.885C76.3562 201.857 76.8492 201.978 77.2763 202.231C77.6074 202.517 77.8535 202.889 77.9878 203.305C79.0377 205.826 79.6967 208.493 79.9419 211.212C80.0254 212.104 80.0625 213.001 80.053 213.897Z" fill="#FBBEBE"/>
<path d="M132.446 81.1426C139.922 81.1426 145.983 75.0927 145.983 67.6298C145.983 60.1669 139.922 54.117 132.446 54.117C124.97 54.117 118.91 60.1669 118.91 67.6298C118.91 75.0927 124.97 81.1426 132.446 81.1426Z" fill="#BE6F72"/>
<path d="M135.261 99.2116C136.997 96.2561 138.517 92.5661 141.856 91.7449C143.741 91.2772 145.702 91.9147 147.538 92.5418C148.07 92.6675 148.553 92.9471 148.926 93.3457C149.197 93.7754 149.343 94.2722 149.346 94.7801C149.927 100.889 149.908 107.039 149.287 113.144C148.846 117.464 148.104 121.764 147.972 126.106C147.788 132.124 148.78 138.142 148.454 144.154C148.208 148.71 147.208 153.187 146.215 157.639L142.05 176.28C141.976 176.856 141.744 177.402 141.38 177.856C141.029 178.178 140.609 178.415 140.152 178.549C134.123 180.676 127.714 181.518 121.339 181.02C114.964 180.522 108.765 178.694 103.141 175.656C101.639 174.831 100.139 173.878 99.1603 172.472C97.772 170.476 97.6435 167.836 98.0948 165.445C98.546 163.054 99.5213 160.799 100.177 158.453C101.191 154.815 101.43 151.018 101.659 147.248C101.965 142.286 102.27 137.293 101.739 132.349C101.375 128.943 100.615 125.589 100.042 122.211C99.1984 117.12 98.709 111.976 98.5772 106.817C98.4904 103.737 98.6327 100.317 100.767 98.0959C101.809 97.0149 103.197 96.3635 104.61 95.8369C106.98 94.9637 109.629 94.4509 112.024 95.2478C114.418 96.0448 116.348 98.5533 115.782 101.01C115.522 102.15 114.783 103.148 114.602 104.305C114.363 105.836 115.175 107.378 116.338 108.414C122.592 114.055 132.141 104.561 135.261 99.2116Z" fill="#E3E8F4"/>
<path d="M135.758 85.4043C137.657 84.7059 139.721 84.5853 141.689 85.0578C142.942 85.3558 144.296 85.8825 145.452 85.3246C145.872 85.1237 146.219 84.7945 146.642 84.6074C147.788 84.105 149.273 84.7218 150.287 83.9907C150.925 83.5299 151.134 82.6914 151.349 81.9291C152.391 78.2906 154.527 75.0591 157.468 72.6711C157.104 75.3286 156.84 78.3534 158.6 80.3838C159.401 81.3054 160.526 81.8841 161.664 82.3345C163.299 82.9824 165.094 83.4121 166.819 83.0586C168.544 82.7052 170.158 81.4025 170.432 79.6666C170.373 82.2756 167.884 84.0981 167.187 86.617C166.923 87.5594 166.947 88.5608 166.763 89.524C166.295 91.984 164.535 93.959 162.997 95.9408C158.086 102.315 154.949 109.872 153.903 117.845C153.832 118.792 153.634 119.724 153.313 120.617C152.973 121.302 152.588 121.964 152.161 122.599C149.617 126.889 150.401 132.301 151.266 137.2C152.616 144.874 153.962 152.393 156.149 159.874C156.524 161.152 156.947 162.486 157.902 163.418C157.6 166.443 154.542 167.822 151.793 169.128C149.079 170.42 146.575 172.113 144.365 174.149C143.574 174.876 142.793 175.694 142.505 176.73C142.234 177.704 142.429 178.774 142.082 179.72C141.734 180.666 140.346 181.345 139.735 180.548C138.972 177.697 140.277 174.713 140.218 171.761C140.176 169.769 139.524 167.832 139.43 165.84C139.34 163.585 140.006 161.37 140.714 159.229C142.686 153.266 145.067 147.359 145.75 141.119C146.434 134.878 145.157 128.063 140.721 123.611C135.456 118.303 132.533 111.106 126.889 106.231C125.994 105.459 124.98 104.499 125.13 103.328C125.233 102.812 125.46 102.329 125.793 101.921C127.729 99.1908 130.305 96.963 132.387 94.3505C134.47 91.738 136.136 88.7305 135.758 85.4043Z" fill="#3F3D56"/>
<path d="M117.226 90.9931C116.879 91.3396 116.64 91.8177 116.237 92.1157C115.767 92.4054 115.231 92.5711 114.679 92.5973C112.636 92.907 110.576 93.091 108.511 93.1482C106.776 93.1482 104.974 92.9957 103.305 93.4704C100.976 94.1287 99.1152 95.9651 97.949 98.0786C96.7828 100.192 96.2309 102.583 95.7831 104.963C94.7962 110.208 94.2677 115.528 94.2039 120.863C97.0648 118.586 99.6145 115.944 101.788 113.005C103.454 110.749 104.964 108.255 107.341 106.748C108.435 106.055 109.663 105.597 110.764 104.922C113.058 103.511 114.648 101.232 116.175 99.0315C117.299 97.3995 120.552 94.2119 120.808 92.2577C121.027 90.3902 118.441 89.4789 117.226 90.9931Z" fill="#3F3D56"/>
<path d="M129.319 58.3787C129.748 58.6357 130.158 58.9216 130.548 59.2345C132.904 60.8769 136.06 60.5719 138.909 60.1977C139.784 60.0869 140.683 59.9621 141.433 59.5048C142.637 58.7633 143.203 57.2388 143.085 55.8286C142.967 54.4184 142.255 53.1191 141.387 52.0173C140.238 50.5592 138.804 49.3493 137.172 48.4607C135.54 47.5721 133.745 47.0234 131.894 46.8478C130.936 46.7224 129.962 46.8257 129.052 47.1492C127.931 47.6101 127.087 48.5594 126.053 49.1935C123.002 51.0645 118.302 50.2329 116.334 53.2196C114.894 55.4232 115.921 58.4168 115.241 60.9496C114.734 62.8414 113.273 64.5634 113.554 66.4933C113.71 67.5328 114.363 68.4405 114.884 69.3691C116.079 71.5039 116.632 73.9377 116.477 76.3784C117.813 77.3209 119.677 75.8553 120.048 74.2684C120.42 72.6815 119.993 70.9907 120.309 69.3899C120.867 66.5799 123.353 64.5184 124.474 61.9405C125.279 60.0938 126.591 56.9755 129.319 58.3787Z" fill="#3F3D56"/>
<path d="M96.4982 89.1359C96.3941 89.7665 96.3281 90.463 96.6787 90.9965C97.3728 92.036 98.9625 91.6618 100.212 91.8177C102.159 92.0568 103.596 93.8966 103.975 95.83C104.353 97.7633 103.902 99.7313 103.409 101.63C102.293 105.933 100.965 110.175 99.4242 114.356C95.2799 113.868 90.917 112.277 88.7164 108.747C86.7171 105.535 86.9219 101.443 85.6516 97.8811C84.7596 95.3726 83.1595 93.1898 81.5767 91.0485C84.1209 91.3673 85.9397 88.4638 86.0889 85.9067C86.2382 83.3497 85.4329 80.7545 85.9813 78.2564C86.1097 77.6639 96.1372 79.5314 97.1125 80.2071C99.9309 82.1578 96.9425 86.4264 96.4982 89.1359Z" fill="#FBBEBE"/>
<path opacity="0.1" d="M96.4982 89.1359C96.3941 89.7665 96.3281 90.463 96.6787 90.9965C97.3728 92.036 98.9625 91.6618 100.212 91.8177C102.159 92.0568 103.596 93.8966 103.975 95.83C104.353 97.7633 103.902 99.7313 103.409 101.63C102.293 105.933 100.965 110.175 99.4242 114.356C95.2799 113.868 90.917 112.277 88.7164 108.747C86.7171 105.535 86.9219 101.443 85.6516 97.8811C84.7596 95.3726 83.1595 93.1898 81.5767 91.0485C84.1209 91.3673 85.9397 88.4638 86.0889 85.9067C86.2382 83.3497 85.4329 80.7545 85.9813 78.2564C86.1097 77.6639 96.1372 79.5314 97.1125 80.2071C99.9309 82.1578 96.9425 86.4264 96.4982 89.1359Z" fill="black"/>
<path d="M94.2664 84.9539C101.742 84.9539 107.803 78.904 107.803 71.4411C107.803 63.9782 101.742 57.9283 94.2664 57.9283C86.7903 57.9283 80.7298 63.9782 80.7298 71.4411C80.7298 78.904 86.7903 84.9539 94.2664 84.9539Z" fill="#FBBEBE"/>
<path d="M90.0978 87.1956C90.5907 86.4264 89.7507 85.3524 90.136 84.5243C90.3651 84.0253 90.9447 83.8105 91.3925 83.4848C91.954 83.0286 92.4019 82.4487 92.701 81.7905C94.8085 77.748 95.4464 73.101 94.5059 68.6415C94.1865 67.1447 93.9019 65.1559 95.2729 64.4837C95.653 64.3144 96.0694 64.243 96.4843 64.2759C98.9556 64.3555 101.344 66.0083 103.742 65.4227C104.561 65.2005 105.292 64.7341 105.838 64.0858C106.383 63.4375 106.718 62.6383 106.796 61.795C106.953 59.5568 105.273 57.6373 103.62 56.1301C100.646 53.3998 96.1129 52.7934 92.0728 52.7276L84.5582 52.6029C82.1529 52.5613 79.456 52.6375 77.783 54.3595C75.3742 56.8369 76.5856 60.8907 76.2385 64.3244C75.9434 67.0648 74.5701 69.5761 72.4205 71.306C70.8621 72.5464 68.717 73.7313 68.7448 75.7132C68.7448 76.4062 69.0433 77.0368 69.2342 77.6916C70.0013 80.2833 69.2689 83.1487 67.7972 85.4182C66.3256 87.6876 64.1736 89.4339 61.9418 90.9619C60.7478 91.7761 59.5122 92.5592 58.5681 93.6645C57.5331 94.9411 56.9185 96.5058 56.8084 98.1445C56.6598 99.3966 56.9177 100.663 57.5442 101.758C59.0124 104.1 62.5353 104.444 64.9476 103.085C67.3599 101.727 68.8316 99.1562 69.8069 96.5714C70.39 95.0365 70.9835 93.2799 72.476 92.5904C74.3642 91.7138 76.5717 93.0997 77.8004 94.7801C79.0291 96.4606 79.7858 98.5117 81.3581 99.8769C83.8224 102.018 88.0153 101.672 90.0978 99.1562C91.5868 97.351 91.9166 94.8529 91.8333 92.5141C91.7918 90.6094 91.1881 88.7593 90.0978 87.1956Z" fill="#3F3D56"/>
<path d="M94.9571 104.807C93.4125 105.136 91.7986 104.409 90.6497 103.321C89.5008 102.233 88.7268 100.83 87.9216 99.4715C85.88 96.0455 83.5396 92.8061 80.9277 89.7908C78.6508 87.1679 75.4818 84.5035 72.1012 85.3142C70.9692 85.6403 69.919 86.2011 69.019 86.96C66.0382 89.316 63.705 92.3885 62.2378 95.8898C60.7706 99.3911 60.2173 103.207 60.6298 106.98C60.8936 109.187 61.4941 111.345 61.744 113.563C61.9123 115.391 61.961 117.227 61.8897 119.062C61.796 124.647 61.6051 130.554 58.5889 135.26C53.9136 142.536 51.4111 151.225 47.9783 159.167C46.1249 163.46 45.0142 168.03 43.9243 172.576C43.2787 175.274 42.6343 177.97 41.991 180.666L37.7912 198.302C37.3574 200.121 36.9235 202.027 37.3817 203.846C38.0758 206.562 40.6339 208.461 43.3308 209.233C46.0277 210.006 48.8843 209.874 51.6853 209.899C57.0444 209.951 62.4451 210.616 67.4744 212.473C68.9114 213.003 70.3449 213.637 71.8755 213.762C73.4062 213.887 74.9299 213.488 76.3634 212.934C80.2751 211.423 83.628 208.776 87.2308 206.638C89.4813 205.285 91.8515 204.14 94.3115 203.219C95.5471 202.758 96.873 202.321 97.7234 201.313C98.3655 200.554 98.6536 199.563 98.8653 198.593C100.038 193.132 99.2506 187.474 98.8653 181.903C98.4801 176.332 95.1445 170.445 97.9039 165.587C98.4592 164.607 99.1222 163.664 99.4068 162.576C99.7817 161.156 99.4658 159.628 99.7816 158.193C100.014 157.133 100.573 156.18 100.955 155.165C101.621 153.377 101.711 151.43 101.705 149.521C101.689 145.329 101.247 141.15 100.386 137.047C99.2923 131.85 102.909 126.712 104.981 121.802C105.724 120.046 106.776 118.386 107.084 116.505C107.362 114.807 107.005 113.078 106.737 111.377C106.338 108.74 106.176 106.073 106.251 103.408C106.317 101.017 106.571 98.581 105.998 96.2561C105.425 93.9312 103.791 91.6756 101.441 91.1975C101.177 91.1204 100.9 91.1025 100.629 91.145C100.357 91.1875 100.099 91.2895 99.8719 91.4435C99.6006 91.709 99.4094 92.0451 99.32 92.4136C98.5564 94.7489 98.7057 97.2644 98.2787 99.6898C97.8518 102.115 97.352 104.295 94.9571 104.807Z" fill="#F86D70"/>
<path d="M62.2021 119.689C62.3444 118.729 61.8967 117.454 60.9248 117.489C60.0293 117.523 59.6302 118.642 59.6336 119.54C59.6371 120.437 59.7586 121.466 59.1234 122.097C58.5611 122.655 57.6309 122.637 56.9784 123.091C56.7481 123.255 56.5607 123.472 56.432 123.723C56.3034 123.975 56.2372 124.254 56.2391 124.536C56.2391 125.018 56.4578 125.478 56.4716 125.96C56.4855 126.442 56.1627 126.999 55.6838 126.968C55.4377 127.38 55.3353 127.862 55.3925 128.339C55.4496 128.815 55.6631 129.259 55.9996 129.602C56.2495 129.844 56.5758 130.052 56.6591 130.392C56.6855 130.63 56.6666 130.871 56.6035 131.102C56.4578 132.055 57.1172 133.122 58.0787 133.226C57.5407 133.61 57.6483 134.511 58.1412 134.958C58.634 135.405 59.3421 135.492 60.005 135.492C61.5096 135.483 62.9975 135.176 64.3818 134.587C64.8558 134.431 65.275 134.143 65.5897 133.756C65.7357 133.556 65.8057 133.312 65.7873 133.065C65.7689 132.819 65.6631 132.587 65.4891 132.412C66.1624 132.522 66.9711 132.585 67.4119 132.065C68.0263 131.337 67.3668 130.26 66.7177 129.557C66.9869 129.517 67.2384 129.399 67.441 129.217C67.6435 129.036 67.7882 128.799 67.857 128.536C67.9257 128.273 67.9156 127.996 67.8279 127.739C67.7401 127.482 67.5786 127.256 67.3633 127.09C67.1412 126.927 66.8392 126.785 66.808 126.511C66.7768 126.237 67.0093 126.061 67.1065 125.818C67.3286 125.274 66.8219 124.72 66.3325 124.39C65.1732 123.621 63.4655 123.635 62.4347 122.859C61.4038 122.083 62.0529 120.728 62.2021 119.689Z" fill="#BE6F72"/>
<path d="M133.807 67.1135C132.966 67.1981 132.12 67.2178 131.277 67.1724C131.133 67.1568 130.989 67.1981 130.875 67.2875C130.761 67.3769 130.687 67.5073 130.669 67.6506L129.055 79.7359C128.931 80.6131 128.571 81.4405 128.014 82.1301C127.555 82.6788 127.213 83.316 127.011 84.002C126.808 84.6881 126.749 85.4083 126.837 86.1181V106.647C126.837 106.647 126.733 109.384 128.84 109.384C131.362 109.701 133.913 109.701 136.434 109.384C136.434 109.384 138.121 109.066 138.121 106.54V86.326C138.25 85.6207 138.223 84.896 138.044 84.202C137.864 83.508 137.535 82.8613 137.08 82.3068C136.541 81.6147 136.193 80.7942 136.07 79.9264L134.394 67.5882C134.374 67.4495 134.303 67.3232 134.194 67.2351C134.085 67.1469 133.947 67.1034 133.807 67.1135Z" fill="#3F3D56"/>
<path opacity="0.1" d="M133.807 67.1135C132.966 67.1981 132.12 67.2178 131.277 67.1724C131.133 67.1568 130.989 67.1981 130.875 67.2875C130.761 67.3769 130.687 67.5073 130.669 67.6506L129.055 79.7359C128.931 80.6131 128.571 81.4405 128.014 82.1301C127.555 82.6788 127.213 83.316 127.011 84.002C126.808 84.6881 126.749 85.4083 126.837 86.1181V106.647C126.837 106.647 126.733 109.384 128.84 109.384C131.362 109.701 133.913 109.701 136.434 109.384C136.434 109.384 138.121 109.066 138.121 106.54V86.326C138.25 85.6207 138.223 84.896 138.044 84.202C137.864 83.508 137.535 82.8613 137.08 82.3068C136.541 81.6147 136.193 80.7942 136.07 79.9264L134.394 67.5882C134.374 67.4495 134.303 67.3232 134.194 67.2351C134.085 67.1469 133.947 67.1034 133.807 67.1135Z" fill="black"/>
<path d="M133.817 86.4853H131.259C129.141 86.4853 127.424 88.1995 127.424 90.3139V99.9219C127.424 102.036 129.141 103.751 131.259 103.751H133.817C135.936 103.751 137.653 102.036 137.653 99.9219V90.3139C137.653 88.1995 135.936 86.4853 133.817 86.4853Z" fill="#FF7F50"/>
<path d="M168.193 14.8918C167.451 15.2988 166.678 15.6463 165.882 15.9312C165.743 15.9724 165.627 16.0655 165.556 16.1909C165.486 16.3163 165.467 16.4643 165.503 16.6034L168.676 28.3838C168.903 29.2388 168.893 30.1393 168.648 30.9893C168.434 31.6722 168.364 32.3918 168.441 33.1031C168.519 33.8144 168.743 34.502 169.099 35.1228L177.02 54.0685C177.02 54.0685 177.978 56.6324 179.925 55.8217C182.376 55.1428 184.732 54.158 186.936 52.8904C186.936 52.8904 188.37 51.948 187.398 49.6197L179.599 30.9651C179.445 30.2647 179.141 29.6058 178.708 29.034C178.275 28.4621 177.722 27.9909 177.089 27.6527C176.326 27.2215 175.688 26.5994 175.239 25.8475L168.933 15.1066C168.861 14.9823 168.744 14.8906 168.606 14.8505C168.468 14.8105 168.32 14.8253 168.193 14.8918Z" fill="#3F3D56"/>
<path d="M175.682 32.7691L173.321 33.7524C171.367 34.5667 170.443 36.8088 171.259 38.7602L174.965 47.6271C175.781 49.5785 178.027 50.5003 179.982 49.686L182.343 48.7027C184.297 47.8884 185.221 45.6463 184.405 43.6949L180.699 34.828C179.883 32.8766 177.637 31.9548 175.682 32.7691Z" fill="#FF7F50"/>
<path d="M70.7892 87.5525C67.0579 89.0874 65.5828 93.8619 66.4575 97.791C67.3321 101.72 69.9666 104.994 72.535 108.109L79.7337 116.875C81.7225 119.301 83.8988 121.854 86.9323 122.7C91.3682 123.937 95.804 121.116 99.6393 118.566C111.088 110.951 123.325 104.59 136.139 99.5927C137.392 99.1077 138.677 98.6157 139.707 97.7495C141.846 95.9547 142.446 92.6458 141.255 90.1269C140.065 87.6079 137.292 85.9691 134.498 85.9483C131.704 85.9275 128.986 87.4035 127.306 89.6349C126.504 90.6986 125.918 91.9147 125.144 92.9957C123.186 95.7122 120.132 97.3926 117.143 98.9102C109.937 102.58 102.52 105.82 94.9293 108.612C93.541 109.118 91.9756 109.599 90.667 108.93C89.8653 108.518 89.3238 107.739 88.8379 106.976C86.6236 103.497 84.8624 99.7502 83.5968 95.8265C82.6492 92.8814 81.8822 89.673 79.6053 87.5802C76.3773 84.6143 70.5323 85.3246 68.1131 88.9661C68.1131 88.9661 65.2774 93.1066 67.0128 94.839C68.7483 96.5714 70.7892 87.5525 70.7892 87.5525Z" fill="#FBBEBE"/>
<path d="M265.451 73.2151C265.958 74.5629 265.972 76.0389 265.899 77.4768C265.809 79.23 265.368 81.2881 263.737 81.9568C262.675 82.383 261.363 82.0608 260.419 82.7052C259.273 83.4814 259.329 85.1514 259.506 86.5165C259.995 90.2689 260.547 94.1599 262.595 97.3337C263.695 99.0349 265.184 100.452 266.694 101.807C269.703 104.516 273.004 107.163 276.958 108.068C277.601 108.249 278.279 108.277 278.936 108.151C279.584 107.951 280.172 107.594 280.647 107.111C282.938 105.012 284.118 102.015 285.645 99.2982C286.725 97.3545 288.012 95.4869 288.62 93.3457C289.12 91.4748 289.087 89.5015 288.524 87.6484C287.961 85.7953 286.891 84.1361 285.433 82.8577C284.757 82.2791 284.007 81.794 283.351 81.1946C281.636 79.6423 280.637 77.4144 280.227 75.1415C279.818 72.8686 279.88 70.5299 280.078 68.2119C276.607 67.9451 273.16 68.3643 269.773 69.04C268.266 69.3414 266.146 69.48 264.782 70.1972C263.247 71.0115 265.031 72.0544 265.451 73.2151Z" fill="#FBBEBE"/>
<path opacity="0.1" d="M265.451 73.2151C265.958 74.5629 265.972 76.0389 265.899 77.4768C265.809 79.23 265.368 81.2881 263.737 81.9568C262.675 82.383 261.363 82.0608 260.419 82.7052C259.273 83.4814 259.329 85.1514 259.506 86.5165C259.995 90.2689 260.547 94.1599 262.595 97.3337C263.695 99.0349 265.184 100.452 266.694 101.807C269.703 104.516 273.004 107.163 276.958 108.068C277.601 108.249 278.279 108.277 278.936 108.151C279.584 107.951 280.172 107.594 280.647 107.111C282.938 105.012 284.118 102.015 285.645 99.2982C286.725 97.3545 288.012 95.4869 288.62 93.3457C289.12 91.4748 289.087 89.5015 288.524 87.6484C287.961 85.7953 286.891 84.1361 285.433 82.8577C284.757 82.2791 284.007 81.794 283.351 81.1946C281.636 79.6423 280.637 77.4144 280.227 75.1415C279.818 72.8686 279.88 70.5299 280.078 68.2119C276.607 67.9451 273.16 68.3643 269.773 69.04C268.266 69.3414 266.146 69.48 264.782 70.1972C263.247 71.0115 265.031 72.0544 265.451 73.2151Z" fill="black"/>
<path d="M246.084 83.412C240.447 81.4821 237.754 73.9427 231.853 73.0973C230.923 72.9622 229.968 73.0141 229.056 72.7993C225.658 71.9955 224.196 68.0733 223.214 64.7297C219.903 53.5834 215.578 42.6762 209.435 32.7945C206.842 28.6367 202.743 25.2204 200.872 20.6676C200.441 19.6282 200.223 18.4432 199.449 17.6221C198.675 16.8009 197.019 16.6831 196.599 17.7295C196.482 18.1001 196.456 18.4935 196.523 18.8763L196.929 23.19L189.869 22.556C189.216 22.4448 188.546 22.4923 187.915 22.6946C187.234 23.0348 186.691 23.5989 186.377 24.2918C183.989 28.7718 186.533 34.6413 190.747 37.4755C195.669 40.7844 202.698 41.2868 205.967 46.2241C207.911 49.1623 207.949 52.9424 209.23 56.2236C209.841 57.7932 210.733 59.2345 211.444 60.7556C212.801 63.6557 213.496 66.8086 214.547 69.83C216.054 74.1506 218.285 78.1767 220.51 82.1786C222.225 85.2692 223.981 88.4152 226.619 90.7783C228.354 92.3305 230.395 93.4808 232.436 94.5896C237.455 97.3268 243.373 99.96 248.691 97.8603C248.996 93.1274 247.805 87.8505 246.084 83.412Z" fill="#FBBEBE"/>
<path d="M263.199 232.566C262.772 237.087 260.023 241.183 259.381 245.534C255.146 244.873 250.978 244.02 246.945 243.05C246.448 242.932 245.955 242.811 245.459 242.704C247.743 236.467 245.754 229.482 246.358 222.84C246.417 222.202 246.5 221.565 246.611 220.934C251.842 219.153 256.566 216.776 262.05 217.469C262.158 218.578 262.269 219.69 262.376 220.799C262.596 223.014 262.814 225.227 263.029 227.438C263.249 229.138 263.306 230.855 263.199 232.566Z" fill="#FBBEBE"/>
<path d="M299.373 243.875C297.318 244.498 295.208 245.042 293.004 245.489C292.636 245.566 292.264 245.638 291.893 245.708C289.637 246.13 287.353 246.439 285.045 246.65C284.809 241.834 281.574 237.406 281.102 232.462C281.005 231.233 281.018 229.998 281.14 228.772C281.182 228.287 281.23 227.801 281.275 227.316L282.254 217.348C283.033 217.25 283.819 217.212 284.604 217.234C289.116 217.341 293.222 219.292 297.693 220.813C298.026 222.916 298.142 225.048 298.04 227.174C297.87 232.586 296.999 238.064 299.012 243.029C299.126 243.31 299.251 243.591 299.373 243.875Z" fill="#FBBEBE"/>
<path d="M240.784 167.877C241.391 172.603 238.972 177.128 237.924 181.775C237.23 184.848 237.136 188.011 237.042 191.164L236.494 210.051C236.438 211.939 236.39 213.862 236.966 215.675C238.125 219.306 241.697 221.759 245.414 222.632C249.131 223.505 253.019 223.062 256.805 222.563C258.662 222.317 260.599 222.029 262.137 220.958C264.251 219.486 265.174 216.863 265.972 214.417L268.225 207.511C270.818 213.339 269.721 219.711 271.276 225.896C271.375 226.468 271.614 227.006 271.97 227.465C272.626 228.193 273.705 228.307 274.688 228.377C281.491 228.855 288.387 229.329 295.079 228.03C296.919 227.684 298.838 227.122 300.108 225.743C301.587 224.139 301.844 221.78 301.827 219.6C301.733 212.113 299.022 204.889 298.418 197.425C298.158 194.227 298.286 191.012 298.172 187.804C298.082 185.391 297.856 182.984 297.495 180.597C297.38 179.503 297.08 178.437 296.606 177.444C295.565 175.503 293.403 174.45 291.355 173.632C275.444 167.181 257.944 167.243 240.784 167.877Z" fill="#F86D70"/>
<path d="M270.241 74.9059C278.484 74.9059 285.166 68.2355 285.166 60.0072C285.166 51.7789 278.484 45.1085 270.241 45.1085C261.999 45.1085 255.316 51.7789 255.316 60.0072C255.316 68.2355 261.999 74.9059 270.241 74.9059Z" fill="#FBBEBE"/>
<path d="M283.25 86.2497C282.143 88.6751 280.401 91.1005 277.808 91.7172C275.423 92.2889 272.897 91.1421 271.14 89.4339C269.384 87.7257 268.235 85.5083 267.017 83.3843C266.128 81.8321 265.139 80.266 263.636 79.2889C261.581 77.9584 258.93 77.9931 256.507 78.3846C254.084 78.7761 251.679 79.476 249.218 79.3166C246.153 79.1122 243.029 77.5842 240.138 78.6029C241.075 82.7884 240.739 87.3897 240.631 91.6791C240.649 92.3414 240.555 93.0021 240.353 93.6333C240.101 94.2218 239.76 94.7685 239.343 95.2548L236.567 98.827C239.545 101.051 242.12 103.955 243.161 107.52C243.748 109.551 243.567 111.706 243.547 113.819C243.481 120.025 244.831 126.206 244.404 132.398C243.904 139.65 241.002 146.503 239.506 153.616C238.225 159.723 237.983 166.001 238.791 172.188C254.348 177.562 270.377 180.313 286.822 181.214C289.727 181.373 292.865 181.397 295.249 179.731C297.231 178.345 298.342 175.971 298.72 173.58C299.098 171.19 298.838 168.757 298.574 166.353C297.859 159.851 297.145 153.348 296.433 146.846C296.027 143.146 295.621 139.424 295.884 135.713C296.082 132.942 296.651 130.222 297.217 127.509L300.688 110.857C301.184 108.49 301.684 106.107 302.666 103.9C303.472 102.098 304.586 100.435 305.474 98.6815C306.534 96.5794 307.264 94.3277 307.64 92.0048C307.791 91.3306 307.782 90.6305 307.613 89.9606C307.241 88.8241 306.106 88.1415 305.048 87.5837C298.592 84.1971 291.674 81.7748 284.514 80.3942C284.028 82.435 284.121 84.3475 283.25 86.2497Z" fill="#E3E8F4"/>
<path d="M281.81 76.271C283.545 72.9518 286.791 70.6234 288.675 67.3803C289.717 65.5417 290.299 63.4796 290.373 61.3686C290.447 59.2576 290.01 57.16 289.099 55.2535C288.436 53.9022 287.537 52.6618 287.016 51.2481C286.437 49.6405 286.381 47.8699 285.711 46.2969C284.791 44.1418 282.799 42.5895 280.63 41.6956C278.46 40.8017 276.118 40.4795 273.782 40.1676L265.896 39.1074C264.754 38.955 263.57 38.8025 262.46 39.1074C261.349 39.4123 260.315 40.3166 260.224 41.4669C260.117 42.8286 261.314 44.0967 261.036 45.4342C260.936 45.9054 260.658 46.3835 260.818 46.8409C260.96 47.1464 261.206 47.3919 261.512 47.5338C263.383 48.5733 265.618 48.6668 267.645 49.3459C269.672 50.025 271.706 51.7297 271.501 53.8502C271.39 54.9901 270.654 56.1751 271.154 57.1972C271.633 58.1431 272.89 58.3164 273.893 58.6109C277.138 59.5498 279.415 63.0632 278.943 66.4067C278.797 67.4462 278.422 68.4406 278.346 69.4835C278.093 73.1354 278.669 74.1783 281.657 76.3022L281.81 76.271Z" fill="#3F3D56"/>
<path d="M302.083 92.0637C302.099 92.7553 301.973 93.4428 301.712 94.0837C300.629 96.3878 297.314 96.2423 295.117 97.5485C292.382 99.177 291.778 102.812 291.528 105.978C291.244 109.564 291.049 113.203 291.785 116.719C292.521 120.236 294.291 123.666 297.248 125.728C300.848 128.226 305.742 128.313 309.851 126.792C313.961 125.271 317.394 122.329 320.372 119.114C323.197 116.064 325.727 112.666 327.244 108.795C327.511 108.102 327.747 107.368 327.532 106.675C327.209 105.635 326.074 105.164 325.151 104.596C322.996 103.297 321.559 101.031 320.812 98.6365C320.066 96.2423 319.941 93.6956 319.917 91.1836C319.889 88.5746 319.882 85.7231 318.216 83.71C316.55 81.697 313.662 81.1322 311.031 81.153C308.88 81.153 302.923 81.3574 301.455 83.2319C300.251 84.791 302.17 89.8324 302.083 92.0637Z" fill="#BE6F72"/>
<path opacity="0.1" d="M302.083 92.0637C302.099 92.7553 301.973 93.4428 301.712 94.0837C300.629 96.3878 297.314 96.2423 295.117 97.5485C292.382 99.177 291.778 102.812 291.528 105.978C291.244 109.564 291.049 113.203 291.785 116.719C292.521 120.236 294.291 123.666 297.248 125.728C300.848 128.226 305.742 128.313 309.851 126.792C313.961 125.271 317.394 122.329 320.372 119.114C323.197 116.064 325.727 112.666 327.244 108.795C327.511 108.102 327.747 107.368 327.532 106.675C327.209 105.635 326.074 105.164 325.151 104.596C322.996 103.297 321.559 101.031 320.812 98.6365C320.066 96.2423 319.941 93.6956 319.917 91.1836C319.889 88.5746 319.882 85.7231 318.216 83.71C316.55 81.697 313.662 81.1322 311.031 81.153C308.88 81.153 302.923 81.3574 301.455 83.2319C300.251 84.791 302.17 89.8324 302.083 92.0637Z" fill="black"/>
<path d="M283.577 184.983C283.684 185.511 283.934 186 284.299 186.397C284.641 186.667 285.041 186.855 285.468 186.948C296.86 190.284 309.029 188.954 320.823 187.592C319.209 182.686 317.584 177.724 317.137 172.579C316.765 168.335 317.182 163.917 315.675 159.936C315.231 158.758 289.338 164.18 286.784 164.62C285.475 164.846 283.969 164.769 283.042 165.805C281.924 167.06 281.831 170.046 281.713 171.609C281.379 176.124 282.313 180.67 283.577 184.983Z" fill="#BE6F72"/>
<path d="M309.515 239.984C307.432 240.947 305.284 241.844 303.059 242.648C301.855 243.085 300.627 243.494 299.373 243.875C297.318 244.498 295.208 245.042 293.004 245.489C291.747 242.309 290.489 239.127 289.231 235.944C288.304 233.602 287.377 231.249 286.603 228.855C286.065 227.22 285.622 225.555 285.277 223.869C284.141 218.137 284.437 212.215 286.138 206.624C290.949 207.529 295.652 208.118 300.39 208.804C302.92 209.15 305.457 209.559 308.026 210.041C308.227 211.711 308.41 213.381 308.574 215.051C308.824 217.629 309.029 220.207 309.188 222.784C309.542 228.513 309.651 234.246 309.515 239.984Z" fill="#BE6F72"/>
<path opacity="0.1" d="M309.515 239.984C307.432 240.947 305.284 241.844 303.059 242.648C301.855 243.085 300.627 243.494 299.373 243.875C297.318 244.498 295.208 245.042 293.004 245.489C291.747 242.309 290.489 239.127 289.231 235.944C288.304 233.602 287.377 231.249 286.603 228.855C286.065 227.22 285.622 225.555 285.277 223.869C284.141 218.137 284.437 212.215 286.138 206.624C290.949 207.529 295.652 208.118 300.39 208.804C302.92 209.15 305.457 209.559 308.026 210.041C308.227 211.711 308.41 213.381 308.574 215.051C308.824 217.629 309.029 220.207 309.188 222.784C309.542 228.513 309.651 234.246 309.515 239.984Z" fill="black"/>
<path d="M336.206 224.971C336.234 226.966 335.664 229.004 335.137 230.961C335.099 231.1 335.064 231.235 335.029 231.374C333.774 230.983 332.692 230.173 331.964 229.08C331.589 228.487 331.311 227.838 331.142 227.157C329.571 228.224 327.986 229.281 326.387 230.327C321.156 233.757 315.627 237.163 309.515 239.984C307.432 240.947 305.284 241.844 303.059 242.648C302.596 241.031 302.156 239.404 301.74 237.766C301.285 236.08 300.928 234.369 300.671 232.642C300.162 228.719 300.556 224.731 301.823 220.983L301.979 220.532C302.569 218.865 303.331 217.264 304.253 215.754C305.117 214.368 306.828 214.6 308.574 215.061C309.365 215.266 310.167 215.512 310.896 215.664C315.433 216.614 320.143 215.633 324.78 215.893C326.99 216.003 329.155 216.553 331.149 217.511C333.381 218.63 335.179 220.342 335.883 222.708C335.983 223.049 336.06 223.396 336.112 223.748C336.171 224.153 336.202 224.561 336.206 224.971Z" fill="#BE6F72"/>
<path d="M252.703 65.3985C245.535 58.4688 237.389 52.596 229.056 47.1042C226.887 45.7466 224.801 44.2622 222.808 42.6588C220.725 40.9264 218.91 38.8926 216.699 37.3334C214.488 35.7743 211.753 34.7036 209.098 35.2164C206.443 35.7292 204.082 38.2655 204.471 40.9195C204.818 43.2548 206.922 44.8555 208.865 46.1964C212.544 48.7361 216.241 51.2828 220.243 53.2751C221.633 53.9041 222.982 54.6217 224.28 55.4232C226.772 57.1002 228.587 59.581 230.472 61.9129C237.585 70.7333 246.299 78.1383 256.156 83.7412C256.274 83.8105 260.381 74.9648 260.207 73.818C259.825 71.1812 254.591 67.2279 252.703 65.3985Z" fill="#BE6F72"/>
<path d="M314.006 177.368C308.473 177.714 303.166 179.578 297.755 180.767C292.344 181.955 286.464 182.416 281.442 180.074L284.496 200.894C284.666 202.051 284.843 203.236 284.59 204.376C284.358 205.464 283.754 206.489 283.806 207.602C283.885 209.362 285.541 210.599 287.1 211.413C291.627 213.799 296.699 214.966 301.816 214.798C301.438 216.322 300.966 217.83 300.584 219.354C303.135 222.088 307.307 222.272 310.948 223.138C313.725 223.793 316.328 224.929 319.049 225.729C322.34 226.699 325.757 227.174 329.188 227.14C331.503 227.115 333.957 226.793 335.755 225.352C337.966 223.574 338.653 220.553 339.132 217.76C339.399 216.201 339.646 214.621 339.479 213.048C339.299 211.24 338.597 209.528 337.903 207.851L333.148 196.33C332.284 194.252 331.413 192.142 330.371 190.135C326.97 183.646 321.326 176.914 314.006 177.368Z" fill="#3F3D56"/>
<path d="M318.241 105.431C318.652 104.353 319.41 103.442 320.397 102.842C321.383 102.242 322.542 101.986 323.69 102.115C325.078 102.309 326.317 103.068 327.508 103.809L334.137 107.939C335.236 108.592 336.29 109.317 337.292 110.108C341.864 113.892 343.627 120.111 344.13 126.019C344.633 131.926 344.13 137.934 345.307 143.745C342.509 146.059 339.406 148.017 336.609 150.328C335.144 151.537 333.662 152.753 332.551 154.309C331.669 155.532 331.041 156.932 330.121 158.12C328.615 159.999 326.43 161.211 324.037 161.495C325.554 162.375 326.404 164.083 326.814 165.785C327.223 167.486 327.334 169.249 327.789 170.951C328.414 173.262 329.708 175.372 330.135 177.728C330.434 179.353 330.302 181.019 330.41 182.669C330.951 191.203 337.66 198.662 337.226 207.2C334.06 206.051 331.063 204.478 328.32 202.526C327.084 201.642 325.89 200.686 324.721 199.733L315.88 192.578C311.58 189.113 307.238 185.572 303.819 181.22C301.674 178.49 299.925 175.469 297.773 172.745C295.621 170.022 292.972 167.548 289.685 166.405C289.203 167.129 288.346 167.631 287.863 168.356C287.778 168.47 287.71 168.596 287.662 168.73C287.603 169.053 287.643 169.386 287.776 169.686C288.164 171.087 288.397 172.527 288.471 173.979L288.689 176.584C288.771 177.275 288.771 177.973 288.689 178.663C288.359 180.891 286.291 182.62 284.059 182.967C283.736 183.036 283.401 183.026 283.084 182.935C282.462 182.728 282.119 182.073 281.931 181.449C281.053 178.49 282.4 175.368 282.508 172.288C282.523 171.507 282.496 170.725 282.428 169.946L282.219 166.873C280.203 166.453 279.044 164.291 278.509 162.306C277.065 156.946 275.611 151.399 276.447 145.91C276.669 144.441 277.058 142.951 276.794 141.482C276.447 139.518 275.031 137.924 274.285 136.074C271.855 130.042 277.017 123.493 276.538 117.017C276.336 114.297 274.608 111.934 273.566 109.412C273.028 107.942 272.329 106.535 271.484 105.216C270.422 103.702 268.988 102.489 267.597 101.27C263.298 97.5048 259.221 93.4951 255.386 89.2607C253.416 89.0567 251.568 88.2118 250.127 86.8561C249.211 85.9899 248.458 84.8465 248.434 83.5888C248.409 82.331 249.34 81.0109 250.599 80.9451C251.335 80.907 252.023 81.2708 252.741 81.4302C254.99 81.9222 257.253 80.2695 258.256 78.194C259.259 76.1186 259.259 73.7313 259.242 71.4307C260.341 71.2359 261.472 71.3271 262.526 71.6955C263.579 72.0639 264.52 72.697 265.257 73.5339C266.809 75.2178 267.819 77.3174 269.04 79.2508C269.538 80.1098 270.176 80.8793 270.929 81.5272C272.598 82.8507 275.003 83.1002 276.461 84.6455C277.201 85.4355 277.61 86.4819 278.287 87.3273C280.189 89.7076 283.67 89.9987 286.27 91.5648C288.87 93.1309 290.678 95.9928 293.559 96.9214C294.6 97.2679 295.735 97.3129 296.766 97.6975C299.147 98.581 300.601 101.107 300.931 103.619C301.261 106.131 300.699 108.671 300.129 111.144L298.793 116.934C298.498 118.216 298.272 119.758 299.22 120.673C299.668 121.043 300.193 121.307 300.758 121.445C303.187 122.235 305.895 123.011 308.178 121.892C309.258 121.359 310.105 120.458 310.879 119.536C314.266 115.552 316.519 110.334 318.241 105.431Z" fill="#FF7F50"/>
<path d="M345.636 223.252C345.157 226.422 343.408 229.541 340.545 230.993C338.828 231.838 336.847 231.975 335.029 231.374C333.774 230.983 332.692 230.173 331.964 229.08C331.589 228.487 331.311 227.838 331.142 227.157C331.142 227.122 331.125 227.084 331.118 227.05C330.857 225.824 330.748 224.57 330.795 223.318C330.794 221.374 330.91 219.431 331.142 217.501C331.336 215.875 331.656 214.267 332.1 212.691C332.745 210.443 333.676 208.277 334.529 206.108C334.974 204.965 335.401 203.818 335.751 202.643C335.963 201.95 336.143 201.237 336.289 200.516L336.341 200.256C336.369 200.111 336.393 199.965 336.418 199.82C336.765 197.845 336.865 195.8 337.757 194.016C339.84 189.827 343.894 190.898 344.512 194.761C344.559 195.06 344.585 195.362 344.592 195.665C344.685 200.554 342.742 205.332 343.63 210.238C343.881 211.435 344.196 212.617 344.574 213.779C344.887 214.85 345.168 215.934 345.383 217.033C345.819 219.077 345.905 221.18 345.636 223.252Z" fill="#BE6F72"/>
<path d="M347.545 168.889C347.639 170.892 347.545 172.919 347.948 174.883C348.889 179.526 352.46 183.635 352.064 188.354C351.967 189.505 351.54 190.742 350.534 191.31C349.527 191.878 347.861 191.833 347.531 192.977C347.438 193.295 347.486 193.642 347.382 193.957C347.164 194.629 346.341 194.917 345.647 194.899C344.953 194.882 344.258 194.653 343.54 194.712C341.024 194.924 340.1 198.285 337.858 199.438C336.348 200.215 334.387 199.785 333.141 198.638C331.895 197.491 331.35 195.703 331.447 194.009C331.52 192.731 331.926 191.497 332.141 190.236C332.534 187.987 332.329 185.683 332.124 183.41C331.822 180.08 331.51 176.709 330.413 173.553C329.896 172.063 329.209 170.639 328.761 169.128C328.122 166.99 327.976 164.742 327.91 162.514C327.775 157.826 328.098 152.812 330.902 149.043C333.009 146.215 336.029 143.918 338.413 141.302C339.906 139.663 340.336 139.151 341.985 140.54C343.342 141.68 344.762 143.253 344.914 144.798C345.331 148.759 344.914 152.653 345.657 156.686C346.4 160.719 347.351 164.749 347.545 168.889Z" fill="#FF7F50"/>
<path d="M311.545 92.5765C321.321 92.5765 329.247 84.6651 329.247 74.9059C329.247 65.1467 321.321 57.2353 311.545 57.2353C301.769 57.2353 293.844 65.1467 293.844 74.9059C293.844 84.6651 301.769 92.5765 311.545 92.5765Z" fill="#BE6F72"/>
<path d="M327.754 108.709C328.143 108.165 328.605 107.579 329.264 107.465C329.762 107.427 330.26 107.532 330.701 107.766L335.362 109.71C336.622 107.633 337.365 105.286 337.528 102.864C337.626 101.377 337.508 99.8699 337.792 98.4078C338.216 96.2388 339.503 94.295 339.802 92.1053C340.038 90.3382 339.611 88.5608 339.354 86.7972C338.563 81.3505 339.413 75.7929 338.958 70.3081C338.504 64.8233 336.3 58.947 331.399 56.428C330.01 55.7351 328.514 55.3193 327.07 54.7719C323.853 53.5488 320.969 51.5911 317.789 50.2676C314.61 48.944 310.875 48.3377 307.793 49.8587C304.711 51.3798 302.916 55.6589 304.919 58.4515C305.579 59.3697 306.544 60.0211 307.467 60.6828C309.345 62.0237 311.261 63.6799 311.694 65.9459C312.472 70.024 308.223 73.222 307.026 77.21C306.584 78.7674 306.545 80.4113 306.911 81.988C307.429 84.351 308.692 86.5824 308.647 89.0008C308.612 91.6514 307.023 94.0525 306.724 96.6892C306.616 97.6559 306.682 98.6365 306.561 99.5997C306.347 100.87 305.97 102.108 305.44 103.283C302.663 110.212 299.848 117.215 295.721 123.445C300.14 123.519 304.508 122.5 308.435 120.479C307.871 123.149 306.79 125.685 305.252 127.942C308.784 127.534 312.181 126.351 315.2 124.477C314.467 127.096 313.406 129.612 312.041 131.965C312.159 131.764 314.343 131.272 314.745 131.043C315.573 130.573 316.239 129.864 316.654 129.009C317.834 126.902 318.57 124.363 319.664 122.173C322.001 117.479 324.706 112.977 327.754 108.709Z" fill="#3F3D56"/>
<path d="M193.507 2.66792C192.666 2.75246 191.82 2.77216 190.976 2.72682C190.832 2.71113 190.688 2.75245 190.575 2.84188C190.461 2.93131 190.387 3.06169 190.369 3.20496L188.755 15.2903C188.631 16.1675 188.271 16.9949 187.714 17.6844C187.254 18.2332 186.913 18.8704 186.71 19.5564C186.508 20.2425 186.449 20.9627 186.537 21.6724V42.2015C186.537 42.2015 186.433 44.9387 188.54 44.9387C191.061 45.255 193.612 45.255 196.134 44.9387C196.134 44.9387 197.821 44.6199 197.821 42.0941V21.8803C197.95 21.1751 197.923 20.4504 197.743 19.7564C197.563 19.0624 197.235 18.4157 196.78 17.8611C196.241 17.1691 195.893 16.3485 195.77 15.4808L194.093 3.1426C194.074 3.00388 194.003 2.8776 193.894 2.78943C193.785 2.70126 193.646 2.65782 193.507 2.66792Z" fill="#3F3D56"/>
<path d="M193.517 22.0397H190.959C188.841 22.0397 187.124 23.7539 187.124 25.8683V35.4763C187.124 37.5908 188.841 39.3049 190.959 39.3049H193.517C195.635 39.3049 197.352 37.5908 197.352 35.4763V25.8683C197.352 23.7539 195.635 22.0397 193.517 22.0397Z" fill="#FF7F50"/>
<path d="M217.456 20.3385C216.615 20.423 215.769 20.4427 214.925 20.3974C214.782 20.3817 214.637 20.423 214.524 20.5124C214.41 20.6019 214.336 20.7323 214.318 20.8755L212.704 32.9608C212.58 33.8381 212.22 34.6654 211.663 35.355C211.203 35.9038 210.862 36.5409 210.659 37.227C210.457 37.913 210.398 38.6333 210.486 39.343V59.872C210.486 59.872 210.382 62.6093 212.489 62.6093C215.01 62.9255 217.562 62.9255 220.083 62.6093C220.083 62.6093 221.77 62.2905 221.77 59.7646V39.5509C221.899 38.8457 221.872 38.1209 221.693 37.4269C221.513 36.7329 221.184 36.0862 220.729 35.5317C220.19 34.8396 219.842 34.0191 219.719 33.1514L218.042 20.8132C218.023 20.6744 217.952 20.5482 217.843 20.46C217.734 20.3718 217.596 20.3284 217.456 20.3385Z" fill="#3F3D56"/>
<path d="M217.456 20.3385C216.615 20.423 215.769 20.4427 214.925 20.3974C214.782 20.3817 214.637 20.423 214.524 20.5124C214.41 20.6019 214.336 20.7323 214.318 20.8755L212.704 32.9608C212.58 33.8381 212.22 34.6654 211.663 35.355C211.203 35.9038 210.862 36.5409 210.659 37.227C210.457 37.913 210.398 38.6333 210.486 39.343V59.872C210.486 59.872 210.382 62.6093 212.489 62.6093C215.01 62.9255 217.562 62.9255 220.083 62.6093C220.083 62.6093 221.77 62.2905 221.77 59.7646V39.5509C221.899 38.8457 221.872 38.1209 221.693 37.4269C221.513 36.7329 221.184 36.0862 220.729 35.5317C220.19 34.8396 219.842 34.0191 219.719 33.1514L218.042 20.8132C218.023 20.6744 217.952 20.5482 217.843 20.46C217.734 20.3718 217.596 20.3284 217.456 20.3385Z" fill="#3F3D56"/>
<path d="M217.466 39.7103H214.908C212.79 39.7103 211.073 41.4244 211.073 43.5389V53.1469C211.073 55.2613 212.79 56.9755 214.908 56.9755H217.466C219.584 56.9755 221.302 55.2613 221.302 53.1469V43.5389C221.302 41.4244 219.584 39.7103 217.466 39.7103Z" fill="#FF7F50"/>
<g opacity="0.2">
<path opacity="0.2" d="M190.535 227.372C190.524 227.746 190.481 228.118 190.407 228.484C187.991 228.101 185.562 227.754 183.118 227.445C183.118 227.348 183.118 227.247 183.118 227.147C183.141 226.108 183.44 225.093 183.986 224.208C184.701 223.079 185.787 222.372 186.985 222.41C188.182 222.448 189.22 223.221 189.862 224.389C190.348 225.306 190.58 226.335 190.535 227.372Z" fill="#3F3D56"/>
<path opacity="0.2" d="M190.73 221.455C190.815 218.776 189.222 216.551 187.172 216.486C185.122 216.422 183.391 218.541 183.306 221.221C183.221 223.901 184.814 226.125 186.865 226.19C188.915 226.255 190.645 224.135 190.73 221.455Z" fill="#3F3D56"/>
<path opacity="0.2" d="M190.92 215.523C191.004 212.844 189.411 210.619 187.361 210.554C185.311 210.49 183.58 212.609 183.496 215.289C183.411 217.969 185.004 220.193 187.054 220.258C189.104 220.323 190.835 218.203 190.92 215.523Z" fill="#3F3D56"/>
<path opacity="0.2" d="M191.105 209.591C191.19 206.912 189.597 204.687 187.547 204.622C185.497 204.558 183.766 206.678 183.681 209.357C183.597 212.037 185.19 214.261 187.24 214.326C189.29 214.391 191.021 212.271 191.105 209.591Z" fill="#3F3D56"/>
<path opacity="0.2" d="M191.295 203.659C191.38 200.98 189.786 198.755 187.736 198.691C185.686 198.626 183.956 200.746 183.871 203.425C183.786 206.105 185.379 208.329 187.429 208.394C189.479 208.459 191.21 206.339 191.295 203.659Z" fill="#3F3D56"/>
<path opacity="0.2" d="M174.951 162.497C174.462 161.836 174.021 161.141 173.632 160.418L183.441 159.125L172.882 158.872C171.94 156.641 171.464 154.242 171.482 151.821C171.501 149.4 172.014 147.008 172.99 144.791L186.915 152.57L174.16 142.577C175.446 140.5 177.148 138.709 179.16 137.318C181.171 135.927 183.448 134.964 185.848 134.49C188.248 134.017 190.721 134.043 193.111 134.566C195.501 135.089 197.757 136.098 199.739 137.531C201.721 138.964 203.385 140.789 204.629 142.893C205.872 144.997 206.667 147.334 206.965 149.758C207.263 152.183 207.057 154.643 206.359 156.984C205.662 159.325 204.489 161.498 202.913 163.366C203.673 164.394 204.319 165.501 204.839 166.668L191.965 172.836L205.616 168.737C206.476 171.568 206.615 174.569 206.02 177.468C205.424 180.366 204.114 183.071 202.208 185.337C204.19 188.021 205.375 191.208 205.628 194.533C205.881 197.858 205.191 201.187 203.638 204.139C202.085 207.092 199.731 209.548 196.845 211.228C193.959 212.907 190.658 213.742 187.319 213.637C183.981 213.532 180.739 212.491 177.965 210.633C175.191 208.776 172.996 206.176 171.632 203.132C170.269 200.088 169.791 196.722 170.253 193.42C170.715 190.117 172.099 187.011 174.246 184.457C171.879 181.249 170.66 177.339 170.786 173.357C170.912 169.374 172.375 165.549 174.941 162.497H174.951Z" fill="#FF7F50"/>
<path opacity="0.1" d="M206.373 174.478C206.252 178.463 204.784 182.29 202.208 185.337C204.19 188.021 205.375 191.208 205.628 194.533C205.881 197.858 205.191 201.187 203.638 204.139C202.085 207.092 199.731 209.548 196.845 211.227C193.959 212.907 190.658 213.742 187.319 213.637C183.981 213.532 180.739 212.491 177.965 210.633C175.191 208.776 172.996 206.176 171.632 203.132C170.269 200.088 169.791 196.722 170.253 193.42C170.715 190.117 172.099 187.011 174.246 184.457C171.966 181.362 206.436 172.486 206.373 174.478Z" fill="black"/>
</g>
</g>
<defs>
<clipPath id="clip0">
<rect width="394" height="247" fill="white"/>
</clipPath>
</defs>
</svg>
