<svg width="70" height="70" viewBox="0 0 70 70" fill="none" xmlns="http://www.w3.org/2000/svg">
<g clip-path="url(#clip0)">
<path d="M69.9996 35C70.005 39.4962 69.1418 43.9511 67.4574 48.1198C67.4533 48.1291 67.4502 48.1374 67.446 48.1467V48.1478C66.3138 50.9392 64.8244 53.572 63.0151 55.9803C62.6661 56.4463 62.3061 56.9026 61.9351 57.3493C61.7994 57.5129 61.6617 57.6754 61.524 57.8359C60.8147 58.6592 60.0684 59.4479 59.2852 60.2021C59.103 60.3781 58.9186 60.5521 58.7323 60.724C58.6888 60.7643 58.6453 60.8037 58.6018 60.8441C57.6896 61.6776 56.7339 62.4623 55.7386 63.1947C55.0707 63.6886 54.3852 64.1577 53.6821 64.6019C53.5278 64.7003 53.3725 64.7969 53.2161 64.8919C52.9448 65.0575 52.6711 65.2194 52.395 65.3775C52.0346 65.5846 51.6698 65.7852 51.3004 65.9791C51.1513 66.0589 51.0012 66.1355 50.851 66.2121C50.6315 66.325 50.411 66.4337 50.1883 66.5404C50.15 66.559 50.1117 66.5777 50.0734 66.5953C49.9284 66.6657 49.7814 66.734 49.6343 66.8024C47.7193 67.6856 45.7277 68.3923 43.6843 68.9138C43.6729 68.9169 43.6626 68.9189 43.6512 68.922C43.5176 68.9562 43.383 68.9893 43.2484 69.0214C43.1479 69.0463 43.0465 69.0701 42.945 69.0929C42.9325 69.097 42.9197 69.1001 42.9067 69.1022C42.6985 69.1509 42.4904 69.1975 42.2802 69.2399C42.1621 69.2648 42.0441 69.2896 41.926 69.3135C41.8546 69.329 41.7821 69.3425 41.7107 69.3559C41.6206 69.3735 41.5315 69.3901 41.4414 69.4077C41.3917 69.418 41.342 69.4263 41.2913 69.4346C41.1774 69.4553 41.0635 69.476 40.9506 69.4957C40.758 69.5288 40.5633 69.5609 40.3697 69.5899C40.2289 69.6117 40.0891 69.6324 39.9482 69.6521C39.7826 69.6759 39.6169 69.6976 39.4502 69.7183C39.4046 69.7256 39.359 69.7308 39.3135 69.7359C39.2544 69.7432 39.1954 69.7504 39.1364 69.7577C39.0173 69.7722 38.8982 69.7856 38.7781 69.7981C38.716 69.8053 38.6549 69.8115 38.5928 69.8177C38.4747 69.8302 38.3567 69.8416 38.2386 69.8519C38.0864 69.8664 37.9342 69.8788 37.7809 69.8913C37.5945 69.9058 37.4092 69.9192 37.2218 69.9306C37.1016 69.9379 36.9815 69.9451 36.8604 69.9513C36.5518 69.9679 36.2432 69.9793 35.9326 69.9876C35.7783 69.9917 35.6229 69.9948 35.4676 69.9969H35.4645C35.3102 69.999 35.1549 70 34.9996 70C33.4255 70.0007 31.8532 69.8955 30.2932 69.6852C29.149 69.532 28.023 69.3242 26.9154 69.0618C26.8709 69.0515 26.8263 69.0411 26.7828 69.0297C26.671 69.0038 26.5602 68.9759 26.4494 68.9479C26.351 68.9231 26.2537 68.8972 26.1553 68.8713C23.62 68.2115 21.1676 67.267 18.8447 66.0558C18.8333 66.0496 18.8209 66.0433 18.8095 66.0371C18.7422 66.0019 18.6759 65.9678 18.6096 65.9315C18.4636 65.8549 18.3183 65.7769 18.1737 65.6975C17.3504 65.245 16.5483 64.761 15.7672 64.2457C15.5663 64.1142 15.3675 63.9806 15.1707 63.845C15.1075 63.8015 15.0454 63.758 14.9833 63.7145C14.9181 63.6689 14.8528 63.6234 14.7886 63.5778C14.6178 63.4567 14.4479 63.3341 14.2791 63.2102C13.5802 62.6966 12.9019 62.1578 12.2444 61.5938C9.91373 59.5978 7.85424 57.3054 6.11834 54.775C5.51258 53.8927 4.94719 52.9822 4.42219 52.0433C1.51274 46.8347 -0.0101208 40.9661 -0.000442436 35C-0.000442436 15.6703 15.6698 0 34.9996 0C54.3293 0 69.9996 15.6703 69.9996 35Z" fill="#FF7F50"/>
<path opacity="0.2" d="M40.6279 69.0297C40.7398 69.0038 40.8506 68.9759 40.9614 68.9479C41.0597 68.9231 41.1571 68.8972 41.2554 68.8713C41.2606 68.6652 41.2679 68.4385 41.2751 68.193C41.3362 66.2711 41.4801 63.1771 41.8198 59.4493C41.8384 59.2494 41.8571 59.0482 41.8757 58.8456C41.9969 57.5822 42.1387 56.2537 42.3086 54.8765C42.3137 54.8309 42.3199 54.7864 42.3251 54.7408C42.4628 53.6246 42.6192 52.4783 42.7952 51.3102C42.9185 50.4932 43.0517 49.6672 43.1949 48.8322C43.2053 48.7743 43.2157 48.7152 43.226 48.6572C43.2674 48.416 43.3099 48.1757 43.3534 47.9334C43.4745 47.2593 43.604 46.5811 43.7396 45.9028C44.217 43.517 44.7855 41.1167 45.4637 38.7817C46.1527 36.36 47.0013 33.9866 48.0038 31.6771C48.7814 29.8829 49.7076 28.157 50.7727 26.5172C50.7883 26.4933 50.8038 26.4706 50.8193 26.4467C52.181 24.3954 53.7374 22.6547 55.5143 21.3531L55.1457 20.8499C53.4433 22.0976 51.8818 23.7579 50.4611 25.8306C50.4538 25.841 50.4476 25.8503 50.4403 25.8607C49.372 27.4449 48.4395 29.1166 47.6528 30.858C46.5994 33.1872 45.7108 35.5876 44.9936 38.0413C44.3143 40.3214 43.7051 42.7918 43.1659 45.4524C42.9765 46.3895 42.7956 47.3498 42.6233 48.3331C42.5943 48.5009 42.5654 48.6686 42.5364 48.8374C42.5364 48.8395 42.5353 48.8426 42.5353 48.8447C42.4908 49.1035 42.4483 49.3624 42.4049 49.6244C42.2972 50.284 42.1957 50.9385 42.1004 51.5877C41.9534 52.588 41.8205 53.5711 41.7017 54.5368C41.6624 54.8558 41.6244 55.1723 41.5878 55.4864C41.5361 55.9296 41.4871 56.3669 41.4408 56.7984C41.3756 57.399 41.3158 57.9868 41.2617 58.5618L41.2461 58.7203C41.2378 58.8114 41.2296 58.9025 41.2213 58.9926C40.8009 63.5271 40.6693 67.1896 40.6279 69.0297Z" fill="black"/>
<path opacity="0.2" d="M48.5662 66.0558C48.5776 66.0496 48.59 66.0433 48.6014 66.0371C48.8147 65.9263 49.0259 65.8135 49.2372 65.6975C49.3065 64.8712 49.3997 63.963 49.5219 63.0083C49.5478 62.8115 49.5737 62.6117 49.6027 62.4108C49.6172 62.3031 49.6327 62.1944 49.6483 62.0846C49.7705 61.2438 49.9154 60.376 50.0894 59.5042C50.7966 55.9462 51.9709 52.3095 53.9207 50.0645C54.0253 49.9434 54.132 49.8274 54.2428 49.7145C54.5174 49.4292 54.8156 49.1676 55.1344 48.9327L54.7657 48.4305C54.3208 48.7595 53.9113 49.134 53.5438 49.5478C53.4144 49.6917 53.2881 49.8415 53.1648 49.9972C51.3703 52.2556 50.2499 55.5993 49.552 58.9098C49.3697 59.7734 49.2165 60.636 49.086 61.4757C49.0529 61.6953 49.0211 61.9127 48.9907 62.1281C48.7888 63.5509 48.6552 64.895 48.5662 66.0558Z" fill="black"/>
<path opacity="0.2" d="M58.9965 21.3386C60.7173 21.3386 62.1122 19.9437 62.1122 18.223C62.1122 16.5022 60.7173 15.1073 58.9965 15.1073C57.2758 15.1073 55.8809 16.5022 55.8809 18.223C55.8809 19.9437 57.2758 21.3386 58.9965 21.3386Z" fill="black"/>
<path opacity="0.2" d="M57.9932 48.1591C59.714 48.1591 61.1089 46.7642 61.1089 45.0434C61.1089 43.3227 59.714 41.9277 57.9932 41.9277C56.2725 41.9277 54.8776 43.3227 54.8776 45.0434C54.8776 46.7642 56.2725 48.1591 57.9932 48.1591Z" fill="black"/>
<path opacity="0.2" d="M46.6271 23.4564C47.2878 27.1839 45.8293 30.5591 45.8293 30.5591C45.8293 30.5591 43.2996 27.8908 42.6389 24.1633C41.9782 20.4357 43.4367 17.0605 43.4367 17.0605C43.4367 17.0605 45.9664 19.7288 46.6271 23.4564Z" fill="black"/>
<path opacity="0.2" d="M56.9819 32.3047C53.4266 33.6048 49.8539 32.7705 49.8539 32.7705C49.8539 32.7705 52.0456 29.8283 55.601 28.5282C59.1564 27.2282 62.7291 28.0625 62.7291 28.0625C62.7291 28.0625 60.5373 31.0046 56.9819 32.3047Z" fill="black"/>
<path opacity="0.2" d="M57.5848 56.0552C55.0928 56.9664 52.5851 56.372 52.5851 56.372C52.5851 56.372 54.1178 54.3001 56.6098 53.3889C59.1019 52.4776 61.6096 53.0721 61.6096 53.0721C61.6096 53.0721 60.0769 55.1439 57.5848 56.0552Z" fill="black"/>
<path d="M45.558 55.5309L45.6843 55.5962C45.6719 55.7308 45.6419 55.8136 45.558 55.5309Z" fill="#2F2E41"/>
<path d="M45.7247 55.5744C45.7258 55.5889 45.7278 55.6044 45.7289 55.6189L45.6843 55.5962C45.6854 55.5827 45.6864 55.5682 45.6885 55.5537C45.6988 55.3725 45.6864 55.1581 45.7247 55.5744Z" fill="#2F2E41"/>
<path d="M32.2749 50.6206C41.6659 50.6206 49.2788 43.0077 49.2788 33.6167C49.2788 24.2257 41.6659 16.6128 32.2749 16.6128C22.8839 16.6128 15.271 24.2257 15.271 33.6167C15.271 43.0077 22.8839 50.6206 32.2749 50.6206Z" fill="#2F2E41"/>
<path d="M33.6746 49.9275C39.3617 49.9275 43.9721 45.3172 43.9721 39.63C43.9721 33.9429 39.3617 29.3325 33.6746 29.3325C27.9874 29.3325 23.3771 33.9429 23.3771 39.63C23.3771 45.3172 27.9874 49.9275 33.6746 49.9275Z" fill="#FDB797"/>
<path d="M57.1877 59.3664L57.1752 59.3695L54.7801 59.9442L49.7931 61.1413L49.1128 61.3049L41.5288 63.1243L40.8847 63.2796L22.4849 67.695C21.241 67.2192 20.0257 66.6719 18.8451 66.0558C18.8337 66.0496 18.8213 66.0433 18.8099 66.0371C18.7426 66.0019 18.6763 65.9678 18.61 65.9315C18.464 65.8549 18.3187 65.7769 18.1741 65.6975C17.3508 65.245 16.5487 64.761 15.7676 64.2457C15.5667 64.1142 15.3679 63.9806 15.1711 63.845C15.1079 63.8015 15.0458 63.758 14.9837 63.7145C14.9184 63.6689 14.8532 63.6234 14.789 63.5778C14.6182 63.4567 14.4483 63.3341 14.2795 63.2102C16.0668 59.9618 20.3227 57.8028 24.5786 56.6213C27.7908 55.7287 28.497 52.7951 28.4359 50.1846C28.4204 49.5892 28.3699 48.9952 28.2847 48.4056C28.155 47.4673 27.9485 46.5413 27.6676 45.6367L37.9656 45.9805L39.0281 48.4284C38.999 48.6973 38.9896 48.9679 39.0001 49.2382C39.0809 51.246 40.3204 52.5445 41.8498 53.3823C42.0486 53.491 42.2526 53.5925 42.4597 53.6867C44.9677 54.8268 47.9199 54.9044 47.9199 54.9044C48.8189 54.8051 49.7269 54.8221 50.6215 54.9552C50.839 54.9883 51.0502 55.028 51.2553 55.0743C52.4523 55.3418 53.5832 55.8479 54.5803 56.5623C54.9611 56.8332 55.3214 57.1319 55.6582 57.4559C56.2569 58.0162 56.772 58.6596 57.1877 59.3664Z" fill="#FDB797"/>
<path d="M58.7326 60.724C58.6892 60.7643 58.6457 60.8037 58.6022 60.8441C57.69 61.6776 56.7342 62.4623 55.739 63.1947C55.0711 63.6886 54.3856 64.1577 53.6825 64.6019C53.5282 64.7003 53.3729 64.7969 53.2165 64.8919C52.9452 65.0575 52.6715 65.2194 52.3954 65.3775C52.035 65.5846 51.6702 65.7852 51.3008 65.9791C51.1517 66.0589 51.0016 66.1355 50.8514 66.2121C50.6319 66.325 50.4113 66.4337 50.1887 66.5404C50.1504 66.559 50.1121 66.5777 50.0738 66.5953L49.6357 66.2318L54.7801 59.9442L55.8146 58.6799C55.8146 58.6799 56.2278 58.6799 57.1752 59.3695C57.6989 59.7593 58.1938 60.1863 58.656 60.6473C58.6809 60.6732 58.7068 60.6981 58.7326 60.724Z" fill="#D0CDE1"/>
<path d="M58.6602 60.6536C58.6463 60.7186 58.6269 60.7823 58.6023 60.8441C57.6901 61.6776 56.7343 62.4623 55.7391 63.1947C54.8756 63.506 53.9797 63.7189 53.0685 63.8294C53.0685 63.8294 53.1462 64.2188 53.2166 64.8919C52.9453 65.0576 52.6716 65.2194 52.3955 65.3775C52.0351 65.5846 51.6703 65.7852 51.3009 65.9792C51.1518 66.0589 51.0017 66.1355 50.8515 66.2121C50.632 66.325 50.4114 66.4337 50.1888 66.5404C50.1505 66.559 50.1122 66.5777 50.0739 66.5953C49.9289 66.6657 49.7818 66.734 49.6348 66.8024C47.7198 67.6856 45.7282 68.3924 43.6848 68.9138C43.6734 68.9169 43.6631 68.9189 43.6517 68.9221C43.5181 68.9562 43.3835 68.9894 43.2489 69.0215C43.1484 69.0463 43.0469 69.0701 42.9455 69.0929C42.9329 69.097 42.9201 69.1001 42.9071 69.1022C42.699 69.1509 42.4909 69.1975 42.2807 69.2399C42.1626 69.2648 42.0446 69.2897 41.9265 69.3135C41.8551 69.329 41.7826 69.3425 41.7111 69.3559C41.621 69.3735 41.532 69.3901 41.4419 69.4077C41.3922 69.4181 41.3425 69.4263 41.2918 69.4346C41.1779 69.4553 41.0639 69.476 40.9511 69.4957C40.7585 69.5289 40.5638 69.561 40.3702 69.5899C40.2293 69.6117 40.0895 69.6324 39.9487 69.6521C39.783 69.6759 39.6173 69.6976 39.4506 69.7184C39.4051 69.7256 39.3595 69.7308 39.3139 69.736C39.2549 69.7432 39.1959 69.7504 39.1369 69.7577C39.0178 69.7722 38.8987 69.7857 38.7786 69.7981C38.7165 69.8053 38.6554 69.8115 38.5932 69.8178C38.4752 69.8302 38.3571 69.8416 38.2391 69.8519C38.0869 69.8664 37.9347 69.8789 37.7814 69.8913C37.595 69.9058 37.4097 69.9192 37.2222 69.9306C37.1021 69.9379 36.982 69.9451 36.8608 69.9513C36.5523 69.9679 36.2437 69.9793 35.933 69.9876C35.7787 69.9917 35.6234 69.9948 35.4681 69.9969H35.465C35.3107 69.999 35.1554 70 35 70C33.426 70.0007 31.8536 69.8955 30.2937 69.6852C29.1495 69.532 28.0235 69.3242 26.9159 69.0618C26.8713 69.0515 26.8268 69.0411 26.7833 69.0297C26.6715 69.0039 26.5607 68.9759 26.4499 68.9479C26.3515 68.9231 26.2542 68.8972 26.1558 68.8713C23.6205 68.2116 21.168 67.267 18.8452 66.0558C18.8338 66.0496 18.8213 66.0434 18.81 66.0371C18.7427 66.0019 18.6764 65.9678 18.6101 65.9315C24.294 64.6071 33.2759 62.5185 41.0702 60.7291C41.2887 60.6794 41.5058 60.6297 41.7215 60.58C44.6002 59.9194 47.2966 59.3043 49.5779 58.7897C49.814 58.7368 50.0452 58.6851 50.2716 58.6343C52.7227 58.0834 54.6259 57.6651 55.6583 57.4559C55.9366 57.3923 56.2179 57.3429 56.5012 57.3078L58.6561 60.6473L58.6602 60.6536Z" fill="#2F2E41"/>
<path d="M16.7181 26.381C19.5154 26.381 21.7831 24.1133 21.7831 21.316C21.7831 18.5187 19.5154 16.251 16.7181 16.251C13.9207 16.251 11.6531 18.5187 11.6531 21.316C11.6531 24.1133 13.9207 26.381 16.7181 26.381Z" fill="#2F2E41"/>
<path d="M47.8316 24.9338C50.6289 24.9338 52.8966 22.6661 52.8966 19.8688C52.8966 17.0715 50.6289 14.8038 47.8316 14.8038C45.0343 14.8038 42.7666 17.0715 42.7666 19.8688C42.7666 22.6661 45.0343 24.9338 47.8316 24.9338Z" fill="#2F2E41"/>
<path d="M42.4048 17.6981C42.405 16.4489 42.8668 15.2438 43.7015 14.3144C44.5363 13.385 45.6851 12.7969 46.9271 12.6631C46.2198 12.5858 45.5041 12.6585 44.8267 12.8763C44.1493 13.0941 43.5254 13.4522 42.9957 13.9272C42.4659 14.4022 42.0422 14.9836 41.7521 15.6333C41.4621 16.283 41.3121 16.9866 41.3121 17.6981C41.3121 18.4097 41.4621 19.1132 41.7521 19.763C42.0422 20.4127 42.4659 20.994 42.9957 21.4691C43.5254 21.9441 44.1493 22.3022 44.8267 22.52C45.5041 22.7378 46.2198 22.8104 46.9271 22.7332C45.6851 22.5993 44.5363 22.0112 43.7015 21.0818C42.8668 20.1525 42.405 18.9474 42.4048 17.6981Z" fill="#2F2E41"/>
<path d="M11.0588 25.4129C10.1846 24.5205 9.67112 23.3365 9.61692 22.0885C9.56273 20.8404 9.97167 19.6164 10.7652 18.6515C10.2059 19.0914 9.74552 19.6441 9.41411 20.2738C9.0827 20.9034 8.88767 21.5959 8.84174 22.3059C8.79581 23.016 8.9 23.7277 9.14753 24.3948C9.39506 25.0619 9.78036 25.6694 10.2783 26.1776C10.7763 26.6859 11.3758 27.0835 12.0377 27.3446C12.6996 27.6057 13.4091 27.7243 14.12 27.6929C14.8308 27.6615 15.5271 27.4806 16.1634 27.1621C16.7996 26.8436 17.3617 26.3946 17.8128 25.8444C16.832 26.6181 15.5999 27.002 14.3532 26.9223C13.1065 26.8427 11.9332 26.3051 11.0588 25.4129Z" fill="#2F2E41"/>
<path d="M32.2748 25.6574C26.2806 25.6574 21.4213 28.492 21.4213 31.9886C21.4213 33.5532 22.398 34.9831 24.0103 36.0877L26.0998 34.5738L25.5316 36.9456C25.7673 37.0548 26.0081 37.1606 26.2591 37.2583L29.3805 33.6167V38.0904C30.3377 38.2438 31.3055 38.3205 32.2748 38.3199C38.2691 38.3199 43.1284 35.4853 43.1284 31.9886C43.1284 28.492 38.2691 25.6574 32.2748 25.6574Z" fill="#2F2E41"/>
<path d="M42.7666 19.8688C42.7666 19.8688 41.9799 23.4867 46.8956 24.9338L42.7666 19.8688Z" fill="#2F2E41"/>
<path d="M21.4213 20.5273C21.4213 20.5273 23.2302 24.572 17.8035 26.381L21.4213 20.5273Z" fill="#2F2E41"/>
<path d="M24.1039 43.6728C24.5603 43.545 24.6817 42.5535 24.375 41.4582C24.0684 40.3628 23.4499 39.5785 22.9935 39.7062C22.5371 39.834 22.4157 40.8255 22.7223 41.9208C23.029 43.0162 23.6475 43.8005 24.1039 43.6728Z" fill="#FDB797"/>
<path d="M45.0003 40.026C45.0702 38.8907 44.7434 37.9468 44.2703 37.9177C43.7973 37.8885 43.3572 38.7852 43.2872 39.9205C43.2173 41.0558 43.5441 41.9997 44.0171 42.0289C44.4902 42.058 44.9303 41.1613 45.0003 40.026Z" fill="#FDB797"/>
</g>
<defs>
<clipPath id="clip0">
<rect width="70" height="70" fill="white"/>
</clipPath>
</defs>
</svg>
