<svg width="70" height="70" viewBox="0 0 70 70" fill="none" xmlns="http://www.w3.org/2000/svg">
<path d="M70 35C70.0054 39.4962 69.1423 43.9511 67.4578 48.1198C67.4537 48.1291 67.4506 48.1374 67.4464 48.1467V48.1478C66.3142 50.9392 64.8248 53.572 63.0155 55.9803C62.6665 56.4463 62.3065 56.9026 61.9355 57.3493C61.7998 57.5129 61.6621 57.6754 61.5244 57.8359C60.8151 58.6592 60.0688 59.4479 59.2856 60.2021C59.1034 60.3781 58.9191 60.5521 58.7327 60.724C58.6892 60.7643 58.6457 60.8037 58.6022 60.8441C57.69 61.6776 56.7343 62.4623 55.739 63.1947C55.0711 63.6886 54.3856 64.1577 53.6825 64.6019C53.5282 64.7003 53.3729 64.7969 53.2166 64.8919C52.9453 65.0575 52.6715 65.2194 52.3954 65.3775C52.0351 65.5846 51.6702 65.7852 51.3009 65.9791C51.1518 66.0589 51.0016 66.1355 50.8515 66.2121C50.632 66.325 50.4114 66.4337 50.1888 66.5404C50.1504 66.559 50.1121 66.5777 50.0738 66.5953C49.9288 66.6657 49.7818 66.734 49.6348 66.8024C47.7198 67.6856 45.7282 68.3923 43.6848 68.9138C43.6734 68.9169 43.663 68.9189 43.6516 68.922C43.5181 68.9562 43.3834 68.9893 43.2488 69.0214C43.1484 69.0463 43.0469 69.0701 42.9454 69.0929C42.9329 69.097 42.9201 69.1001 42.9071 69.1022C42.699 69.1509 42.4908 69.1975 42.2806 69.2399C42.1626 69.2648 42.0445 69.2896 41.9265 69.3135C41.855 69.329 41.7826 69.3425 41.7111 69.3559C41.621 69.3735 41.532 69.3901 41.4419 69.4077C41.3922 69.418 41.3425 69.4263 41.2917 69.4346C41.1778 69.4553 41.0639 69.476 40.951 69.4957C40.7584 69.5288 40.5638 69.5609 40.3701 69.5899C40.2293 69.6117 40.0895 69.6324 39.9487 69.6521C39.783 69.6759 39.6173 69.6976 39.4506 69.7183C39.405 69.7256 39.3595 69.7308 39.3139 69.7359C39.2549 69.7432 39.1959 69.7504 39.1368 69.7577C39.0178 69.7722 38.8987 69.7856 38.7786 69.7981C38.7164 69.8053 38.6553 69.8115 38.5932 69.8177C38.4752 69.8302 38.3571 69.8416 38.2391 69.8519C38.0868 69.8664 37.9346 69.8788 37.7814 69.8913C37.595 69.9058 37.4096 69.9192 37.2222 69.9306C37.1021 69.9379 36.982 69.9451 36.8608 69.9513C36.5522 69.9679 36.2437 69.9793 35.933 69.9876C35.7787 69.9917 35.6234 69.9948 35.4681 69.9969H35.465C35.3107 69.999 35.1553 70 35 70C33.4259 70.0007 31.8536 69.8955 30.2937 69.6852C29.1494 69.532 28.0235 69.3242 26.9158 69.0618C26.8713 69.0515 26.8268 69.0411 26.7833 69.0297C26.6715 69.0038 26.5607 68.9759 26.4499 68.9479C26.3515 68.9231 26.2542 68.8972 26.1558 68.8713C23.6205 68.2115 21.168 67.267 18.8451 66.0558C18.8338 66.0496 18.8213 66.0433 18.8099 66.0371C18.7426 66.0019 18.6764 65.9678 18.6101 65.9315C18.4641 65.8549 18.3188 65.7769 18.1741 65.6975C17.3509 65.245 16.5487 64.761 15.7676 64.2457C15.5667 64.1142 15.3679 63.9806 15.1712 63.845C15.108 63.8015 15.0459 63.758 14.9838 63.7145C14.9185 63.6689 14.8533 63.6234 14.7891 63.5778C14.6182 63.4567 14.4484 63.3341 14.2796 63.2102C13.5807 62.6966 12.9024 62.1578 12.2449 61.5938C9.9142 59.5978 7.85472 57.3054 6.11883 54.775C5.51306 53.8927 4.94767 52.9822 4.42267 52.0433C1.51323 46.8347 -0.00963248 40.9661 4.58452e-05 35C4.58452e-05 15.6703 15.6703 0 35 0C54.3297 0 70 15.6703 70 35Z" fill="#FF7F50"/>
<path opacity="0.2" d="M40.6283 69.0298C40.7401 69.0039 40.8509 68.9759 40.9617 68.948C41.0601 68.9231 41.1574 68.8972 41.2558 68.8713C41.261 68.6653 41.2682 68.4385 41.2755 68.1931C41.3366 66.2712 41.4805 63.1771 41.8202 59.4493C41.8388 59.2494 41.8574 59.0482 41.8761 58.8456C41.9972 57.5823 42.1391 56.2537 42.3089 54.8765C42.3141 54.831 42.3203 54.7864 42.3255 54.7409C42.4632 53.6246 42.6196 52.4783 42.7956 51.3102C42.9188 50.4932 43.0521 49.6672 43.1953 48.8323C43.2057 48.7743 43.216 48.7153 43.2264 48.6573C43.2678 48.416 43.3102 48.1758 43.3537 47.9335C43.4749 47.2594 43.6043 46.5811 43.74 45.9028C44.2173 43.517 44.7858 41.1167 45.4641 38.7817C46.1531 36.36 47.0016 33.9867 48.0042 31.6771C48.7817 29.883 49.7079 28.157 50.7731 26.5172C50.7886 26.4934 50.8042 26.4706 50.8197 26.4468C52.1814 24.3954 53.7377 22.6548 55.5147 21.3531L55.146 20.8499C53.4437 22.0977 51.8821 23.7579 50.4614 25.8307C50.4542 25.841 50.448 25.8503 50.4407 25.8607C49.3724 27.4449 48.4399 29.1167 47.6531 30.858C46.5997 33.1873 45.7111 35.5876 44.994 38.0413C44.3147 40.3215 43.7055 42.7918 43.1663 45.4524C42.9768 46.3895 42.796 47.3498 42.6237 48.3332C42.5947 48.5009 42.5657 48.6687 42.5367 48.8375C42.5367 48.8395 42.5357 48.8426 42.5357 48.8447C42.4912 49.1036 42.4487 49.3625 42.4052 49.6244C42.2975 50.2841 42.196 50.9385 42.1008 51.5878C41.9537 52.5881 41.8208 53.5711 41.7021 54.5369C41.6628 54.8558 41.6248 55.1723 41.5882 55.4864C41.5364 55.9296 41.4874 56.367 41.4412 56.7984C41.3759 57.399 41.3162 57.9868 41.262 58.5619L41.2465 58.7203C41.2382 58.8114 41.2299 58.9025 41.2216 58.9926C40.8012 63.5271 40.6697 67.1897 40.6283 69.0298Z" fill="black"/>
<path opacity="0.2" d="M48.5665 66.0558C48.5779 66.0496 48.5903 66.0433 48.6017 66.0371C48.815 65.9263 49.0263 65.8135 49.2375 65.6975C49.3069 64.8712 49.4001 63.963 49.5223 63.0083C49.5482 62.8115 49.5741 62.6117 49.6031 62.4108C49.6176 62.3031 49.6331 62.1944 49.6486 62.0846C49.7708 61.2438 49.9158 60.376 50.0897 59.5041C50.797 55.9462 51.9713 52.3095 53.9211 50.0645C54.0257 49.9433 54.1323 49.8274 54.2432 49.7145C54.5177 49.4292 54.816 49.1676 55.1347 48.9327L54.7661 48.4305C54.3211 48.7595 53.9116 49.134 53.5442 49.5478C53.4148 49.6917 53.2884 49.8415 53.1652 49.9972C51.3707 52.2556 50.2503 55.5993 49.5523 58.9098C49.3701 59.7734 49.2168 60.636 49.0864 61.4757C49.0532 61.6953 49.0215 61.9127 48.9911 62.1281C48.7892 63.5509 48.6556 64.895 48.5665 66.0558Z" fill="black"/>
<path opacity="0.2" d="M58.997 21.3386C60.7178 21.3386 62.1127 19.9437 62.1127 18.223C62.1127 16.5022 60.7178 15.1073 58.997 15.1073C57.2763 15.1073 55.8813 16.5022 55.8813 18.223C55.8813 19.9437 57.2763 21.3386 58.997 21.3386Z" fill="black"/>
<path opacity="0.2" d="M57.9936 48.1591C59.7144 48.1591 61.1093 46.7642 61.1093 45.0434C61.1093 43.3227 59.7144 41.9277 57.9936 41.9277C56.2729 41.9277 54.8779 43.3227 54.8779 45.0434C54.8779 46.7642 56.2729 48.1591 57.9936 48.1591Z" fill="black"/>
<path opacity="0.2" d="M46.6276 23.4563C47.2883 27.1839 45.8298 30.5591 45.8298 30.5591C45.8298 30.5591 43.3001 27.8908 42.6394 24.1632C41.9787 20.4357 43.4372 17.0605 43.4372 17.0605C43.4372 17.0605 45.9669 19.7288 46.6276 23.4563Z" fill="black"/>
<path opacity="0.2" d="M56.9823 32.3047C53.4269 33.6048 49.8542 32.7705 49.8542 32.7705C49.8542 32.7705 52.046 29.8283 55.6014 28.5283C59.1568 27.2282 62.7294 28.0625 62.7294 28.0625C62.7294 28.0625 60.5377 31.0046 56.9823 32.3047Z" fill="black"/>
<path opacity="0.2" d="M57.5852 56.0552C55.0931 56.9664 52.5854 56.372 52.5854 56.372C52.5854 56.372 54.1182 54.3001 56.6102 53.3889C59.1022 52.4776 61.6099 53.0721 61.6099 53.0721C61.6099 53.0721 60.0772 55.1439 57.5852 56.0552Z" fill="black"/>
<path d="M45.5583 55.5309L45.6847 55.5962C45.6723 55.7308 45.6422 55.8136 45.5583 55.5309Z" fill="#2F2E41"/>
<path d="M45.7251 55.5744C45.7261 55.5889 45.7282 55.6044 45.7292 55.6189L45.6847 55.5961C45.6857 55.5827 45.6868 55.5682 45.6888 55.5537C45.6992 55.3725 45.6868 55.1581 45.7251 55.5744Z" fill="#2F2E41"/>
<path d="M21.0025 47.5527C21.0025 47.5527 12.4607 48.2511 14.7167 63.8121C15.8872 64.9349 17.2688 65.8144 18.7815 66.3998L23.5867 50.1404L21.0025 47.5527Z" fill="#BE7C5E"/>
<path d="M48.7162 47.5527C48.7162 47.5527 57.2579 48.2511 55.002 63.8121C53.8294 64.9357 52.4454 65.8152 50.9302 66.3998L46.125 50.1404L48.7162 47.5527Z" fill="#BE7C5E"/>
<path d="M21.3726 22.0565C21.3726 22.0565 20.7161 23.9702 19.7837 26.1842C17.7513 31.0278 20.0701 49.627 24.9346 51.607C30.3929 53.8315 37.5692 55.2563 45.0249 52.536C51.5064 50.1718 53.5038 29.0024 48.9222 23.8445C48.3844 23.2403 47.8221 22.6397 47.2354 22.053L21.3726 22.0565Z" fill="#333333"/>
<path d="M35.0828 36.8388C43.8582 36.8388 50.9721 29.7249 50.9721 20.9495C50.9721 12.1741 43.8582 5.06024 35.0828 5.06024C26.3075 5.06024 19.1936 12.1741 19.1936 20.9495C19.1936 29.7249 26.3075 36.8388 35.0828 36.8388Z" fill="#333333"/>
<path opacity="0.1" d="M48.552 47.5527H20.8384L18.2507 58.6402C18.2507 58.6402 16.7317 63.7737 18.6209 66.0296C20.5102 68.2855 38.1769 73.419 51.1397 66.3998C52.2706 63.4444 52.4007 60.1995 51.5099 57.1631C50.0327 51.9912 51.1397 56.7929 51.1397 56.7929L48.552 47.5527Z" fill="black"/>
<path opacity="0.1" d="M48.9222 47.5527H21.2085L18.6209 58.6402C18.6209 58.6402 17.1018 63.7737 18.991 66.0296C20.8803 68.2855 38.547 73.419 51.5098 66.3998C52.6408 63.4444 52.7708 60.1995 51.88 57.1631C50.4028 51.9912 51.5098 56.7929 51.5098 56.7929L48.9222 47.5527Z" fill="black"/>
<path d="M48.7162 47.5527H21.0026L18.4149 58.6402C18.4149 58.6402 16.8958 63.7737 18.7851 66.0296C20.6743 68.2855 38.3411 73.419 51.3039 66.3998C52.4348 63.4444 52.5649 60.1995 51.6741 57.1631C50.1969 51.9912 51.3039 56.7929 51.3039 56.7929L48.7162 47.5527Z" fill="#2F2E41"/>
<path opacity="0.1" d="M29.4989 38.3578H40.5864V47.4374C40.5864 48.8545 40.0235 50.2135 39.0215 51.2155C38.0195 52.2175 36.6605 52.7804 35.2435 52.7804H34.8454C33.4283 52.7804 32.0693 52.2175 31.0673 51.2155C30.0653 50.2135 29.5024 48.8545 29.5024 47.4374V38.3578H29.4989Z" fill="black"/>
<path d="M29.4989 37.9458H40.5864V47.0254C40.5864 48.4424 40.0235 49.8014 39.0215 50.8034C38.0195 51.8054 36.6605 52.3683 35.2435 52.3683H34.8454C33.4283 52.3683 32.0693 51.8054 31.0673 50.8034C30.0653 49.8014 29.5024 48.4424 29.5024 47.0254V37.9458H29.4989Z" fill="#BE7C5E"/>
<path opacity="0.1" d="M29.5233 39.5417C33.0966 40.8772 37.0301 40.8884 40.6109 39.5731V38.2112H29.5233V39.5417Z" fill="black"/>
<path d="M35.0828 40.2855C43.8582 40.2855 50.9721 33.1716 50.9721 24.3962C50.9721 15.6208 43.8582 8.50697 35.0828 8.50697C26.3075 8.50697 19.1936 15.6208 19.1936 24.3962C19.1936 33.1716 26.3075 40.2855 35.0828 40.2855Z" fill="#BE7C5E"/>
<path d="M19.892 18.3618H50.1933C50.1933 18.3618 47.6056 6.1393 36.1514 6.90758C24.6972 7.67585 19.892 18.3618 19.892 18.3618Z" fill="#333333"/>
<path d="M19.5218 26.4916C20.3377 26.4916 20.999 25.2501 20.999 23.7188C20.999 22.1874 20.3377 20.946 19.5218 20.946C18.706 20.946 18.0447 22.1874 18.0447 23.7188C18.0447 25.2501 18.706 26.4916 19.5218 26.4916Z" fill="#BE7C5E"/>
<path d="M50.5636 26.4916C51.3794 26.4916 52.0408 25.2501 52.0408 23.7188C52.0408 22.1874 51.3794 20.946 50.5636 20.946C49.7478 20.946 49.0864 22.1874 49.0864 23.7188C49.0864 25.2501 49.7478 26.4916 50.5636 26.4916Z" fill="#BE7C5E"/>
<path opacity="0.1" d="M19.892 18.7704H50.1933C50.1933 18.7704 47.6056 6.54789 36.1514 7.31616C24.6972 8.08443 19.892 18.7704 19.892 18.7704Z" fill="black"/>
</svg>
