<svg width="70" height="70" viewBox="0 0 70 70" fill="none" xmlns="http://www.w3.org/2000/svg">
<path d="M70 35C70.0054 39.4962 69.1423 43.9511 67.4578 48.1198C67.4537 48.1291 67.4506 48.1374 67.4464 48.1467V48.1478C66.3142 50.9392 64.8248 53.572 63.0155 55.9803C62.6665 56.4463 62.3065 56.9026 61.9355 57.3493C61.7998 57.5129 61.6621 57.6754 61.5244 57.8359C60.8151 58.6592 60.0688 59.4479 59.2856 60.2021C59.1034 60.3781 58.9191 60.5521 58.7327 60.724C58.6892 60.7643 58.6457 60.8037 58.6022 60.8441C57.69 61.6776 56.7343 62.4623 55.739 63.1947C55.0711 63.6886 54.3856 64.1577 53.6825 64.6019C53.5282 64.7003 53.3729 64.7969 53.2166 64.8919C52.9453 65.0575 52.6715 65.2194 52.3954 65.3775C52.0351 65.5846 51.6702 65.7852 51.3009 65.9791C51.1518 66.0589 51.0016 66.1355 50.8515 66.2121C50.632 66.325 50.4114 66.4337 50.1888 66.5404C50.1504 66.559 50.1121 66.5777 50.0738 66.5953C49.9288 66.6657 49.7818 66.734 49.6348 66.8024C47.7198 67.6856 45.7282 68.3923 43.6848 68.9138C43.6734 68.9169 43.663 68.9189 43.6516 68.922C43.5181 68.9562 43.3834 68.9893 43.2488 69.0214C43.1484 69.0463 43.0469 69.0701 42.9454 69.0929C42.9329 69.097 42.9201 69.1001 42.9071 69.1022C42.699 69.1509 42.4908 69.1975 42.2806 69.2399C42.1626 69.2648 42.0445 69.2896 41.9265 69.3135C41.855 69.329 41.7826 69.3425 41.7111 69.3559C41.621 69.3735 41.532 69.3901 41.4419 69.4077C41.3922 69.418 41.3425 69.4263 41.2917 69.4346C41.1778 69.4553 41.0639 69.476 40.951 69.4957C40.7584 69.5288 40.5638 69.5609 40.3701 69.5899C40.2293 69.6117 40.0895 69.6324 39.9487 69.6521C39.783 69.6759 39.6173 69.6976 39.4506 69.7183C39.405 69.7256 39.3595 69.7308 39.3139 69.7359C39.2549 69.7432 39.1959 69.7504 39.1368 69.7577C39.0178 69.7722 38.8987 69.7856 38.7786 69.7981C38.7164 69.8053 38.6553 69.8115 38.5932 69.8177C38.4752 69.8302 38.3571 69.8416 38.2391 69.8519C38.0868 69.8664 37.9346 69.8788 37.7814 69.8913C37.595 69.9058 37.4096 69.9192 37.2222 69.9306C37.1021 69.9379 36.982 69.9451 36.8608 69.9513C36.5522 69.9679 36.2437 69.9793 35.933 69.9876C35.7787 69.9917 35.6234 69.9948 35.4681 69.9969H35.465C35.3107 69.999 35.1553 70 35 70C33.4259 70.0007 31.8536 69.8955 30.2937 69.6852C29.1494 69.532 28.0235 69.3242 26.9158 69.0618C26.8713 69.0515 26.8268 69.0411 26.7833 69.0297C26.6715 69.0038 26.5607 68.9759 26.4499 68.9479C26.3515 68.9231 26.2542 68.8972 26.1558 68.8713C23.6205 68.2115 21.168 67.267 18.8451 66.0558C18.8338 66.0496 18.8213 66.0433 18.8099 66.0371C18.7426 66.0019 18.6764 65.9678 18.6101 65.9315C18.4641 65.8549 18.3188 65.7769 18.1741 65.6975C17.3509 65.245 16.5487 64.761 15.7676 64.2457C15.5667 64.1142 15.3679 63.9806 15.1712 63.845C15.108 63.8015 15.0459 63.758 14.9838 63.7145C14.9185 63.6689 14.8533 63.6234 14.7891 63.5778C14.6182 63.4567 14.4484 63.3341 14.2796 63.2102C13.5807 62.6966 12.9024 62.1578 12.2449 61.5938C9.9142 59.5978 7.85472 57.3054 6.11883 54.775C5.51306 53.8927 4.94767 52.9822 4.42267 52.0433C1.51323 46.8347 -0.00963248 40.9661 4.58452e-05 35C4.58452e-05 15.6703 15.6703 0 35 0C54.3297 0 70 15.6703 70 35Z" fill="#FF7F50"/>
<path opacity="0.2" d="M40.6283 69.0298C40.7401 69.0039 40.8509 68.9759 40.9617 68.948C41.0601 68.9231 41.1574 68.8972 41.2558 68.8713C41.261 68.6653 41.2682 68.4385 41.2755 68.1931C41.3366 66.2712 41.4805 63.1771 41.8202 59.4493C41.8388 59.2494 41.8574 59.0482 41.8761 58.8456C41.9972 57.5823 42.1391 56.2537 42.3089 54.8765C42.3141 54.8309 42.3203 54.7864 42.3255 54.7408C42.4632 53.6246 42.6196 52.4783 42.7956 51.3102C42.9188 50.4932 43.0521 49.6672 43.1953 48.8323C43.2057 48.7743 43.216 48.7153 43.2264 48.6573C43.2678 48.416 43.3102 48.1758 43.3537 47.9335C43.4749 47.2593 43.6043 46.5811 43.74 45.9028C44.2173 43.517 44.7858 41.1167 45.4641 38.7817C46.1531 36.36 47.0016 33.9866 48.0042 31.6771C48.7817 29.883 49.7079 28.157 50.7731 26.5172C50.7886 26.4934 50.8042 26.4706 50.8197 26.4468C52.1814 24.3954 53.7377 22.6547 55.5147 21.3531L55.146 20.8499C53.4437 22.0977 51.8821 23.7579 50.4614 25.8306C50.4542 25.841 50.448 25.8503 50.4407 25.8607C49.3724 27.4449 48.4399 29.1167 47.6531 30.858C46.5997 33.1872 45.7111 35.5876 44.994 38.0413C44.3147 40.3215 43.7055 42.7918 43.1663 45.4524C42.9768 46.3895 42.796 47.3498 42.6237 48.3332C42.5947 48.5009 42.5657 48.6687 42.5367 48.8374C42.5367 48.8395 42.5357 48.8426 42.5357 48.8447C42.4912 49.1036 42.4487 49.3624 42.4052 49.6244C42.2975 50.284 42.196 50.9385 42.1008 51.5877C41.9537 52.588 41.8208 53.5711 41.7021 54.5369C41.6628 54.8558 41.6248 55.1723 41.5882 55.4864C41.5364 55.9296 41.4874 56.3669 41.4412 56.7984C41.3759 57.399 41.3162 57.9868 41.262 58.5619L41.2465 58.7203C41.2382 58.8114 41.2299 58.9025 41.2216 58.9926C40.8012 63.5271 40.6697 67.1897 40.6283 69.0298Z" fill="black"/>
<path opacity="0.2" d="M48.5665 66.0558C48.5779 66.0496 48.5903 66.0433 48.6017 66.0371C48.815 65.9263 49.0263 65.8135 49.2375 65.6975C49.3069 64.8712 49.4001 63.963 49.5223 63.0083C49.5482 62.8115 49.5741 62.6117 49.6031 62.4108C49.6176 62.3031 49.6331 62.1944 49.6486 62.0846C49.7708 61.2438 49.9158 60.376 50.0897 59.5041C50.797 55.9462 51.9713 52.3095 53.9211 50.0645C54.0257 49.9433 54.1323 49.8274 54.2432 49.7145C54.5177 49.4292 54.816 49.1676 55.1347 48.9327L54.7661 48.4305C54.3211 48.7595 53.9116 49.134 53.5442 49.5478C53.4148 49.6917 53.2884 49.8415 53.1652 49.9972C51.3707 52.2556 50.2503 55.5993 49.5523 58.9098C49.3701 59.7734 49.2168 60.636 49.0864 61.4757C49.0532 61.6953 49.0215 61.9127 48.9911 62.1281C48.7892 63.5509 48.6556 64.895 48.5665 66.0558Z" fill="black"/>
<path opacity="0.2" d="M58.9969 21.3386C60.7176 21.3386 62.1126 19.9437 62.1126 18.223C62.1126 16.5022 60.7176 15.1073 58.9969 15.1073C57.2762 15.1073 55.8812 16.5022 55.8812 18.223C55.8812 19.9437 57.2762 21.3386 58.9969 21.3386Z" fill="black"/>
<path opacity="0.2" d="M57.9935 48.1591C59.7142 48.1591 61.1092 46.7642 61.1092 45.0434C61.1092 43.3227 59.7142 41.9277 57.9935 41.9277C56.2727 41.9277 54.8778 43.3227 54.8778 45.0434C54.8778 46.7642 56.2727 48.1591 57.9935 48.1591Z" fill="black"/>
<path opacity="0.2" d="M46.6276 23.4563C47.2883 27.1839 45.8298 30.5591 45.8298 30.5591C45.8298 30.5591 43.3001 27.8908 42.6394 24.1632C41.9787 20.4357 43.4372 17.0605 43.4372 17.0605C43.4372 17.0605 45.9669 19.7288 46.6276 23.4563Z" fill="black"/>
<path opacity="0.2" d="M56.9823 32.3047C53.4269 33.6048 49.8542 32.7705 49.8542 32.7705C49.8542 32.7705 52.046 29.8283 55.6014 28.5282C59.1568 27.2282 62.7294 28.0625 62.7294 28.0625C62.7294 28.0625 60.5377 31.0046 56.9823 32.3047Z" fill="black"/>
<path opacity="0.2" d="M57.5852 56.0552C55.0931 56.9664 52.5854 56.372 52.5854 56.372C52.5854 56.372 54.1182 54.3001 56.6102 53.3889C59.1022 52.4776 61.6099 53.0721 61.6099 53.0721C61.6099 53.0721 60.0772 55.1439 57.5852 56.0552Z" fill="black"/>
<path d="M45.5583 55.5309L45.6847 55.5962C45.6723 55.7308 45.6422 55.8136 45.5583 55.5309Z" fill="#2F2E41"/>
<path d="M45.7251 55.5744C45.7261 55.5889 45.7282 55.6044 45.7292 55.6189L45.6847 55.5961C45.6857 55.5827 45.6868 55.5682 45.6888 55.5537C45.6992 55.3725 45.6868 55.1581 45.7251 55.5744Z" fill="#2F2E41"/>
<path d="M35.005 69.9999C41.7489 70.0106 48.3467 68.0926 53.9758 64.4852C52.7039 57.7341 47.864 57.3494 47.864 57.3494H21.1742C21.1742 57.3494 16.6071 57.7134 15.1807 63.9239C20.9842 67.8893 27.9095 70.0118 35.005 69.9999Z" fill="#2F2E41"/>
<path d="M35 51.4458C44.0827 51.4458 51.4457 44.0828 51.4457 35C51.4457 25.9172 44.0827 18.5542 35 18.5542C25.9172 18.5542 18.5542 25.9172 18.5542 35C18.5542 44.0828 25.9172 51.4458 35 51.4458Z" fill="#333333"/>
<path opacity="0.1" d="M29.5181 48.9157H39.6385V57.2197C39.6385 58.5958 39.1057 59.9156 38.1571 60.8889C37.2085 61.8621 35.9219 62.4091 34.5802 62.4096C33.2382 62.4096 31.9511 61.8628 31.0021 60.8895C30.0531 59.9163 29.52 58.5962 29.52 57.2197V48.9157H29.5181Z" fill="black"/>
<path d="M29.837 48.0723H39.3177C39.4028 48.0723 39.4844 48.1091 39.5446 48.1747C39.6047 48.2403 39.6385 48.3292 39.6385 48.4219V56.8947C39.6387 57.6191 39.5078 58.3364 39.2535 59.0056C38.9992 59.6748 38.6264 60.2829 38.1564 60.795C37.6864 61.3072 37.1284 61.7134 36.5143 61.9904C35.9002 62.2675 35.242 62.4099 34.5773 62.4096C33.2355 62.4096 31.9487 61.8287 30.9999 60.7947C30.0511 59.7606 29.5181 58.3581 29.5181 56.8958V48.4219C29.5181 48.3296 29.5516 48.2409 29.6114 48.1754C29.6711 48.1099 29.7522 48.0728 29.837 48.0723Z" fill="#FDB797"/>
<path opacity="0.1" d="M29.5181 52.406C32.7798 53.3671 36.3702 53.3749 39.6385 52.4279V51.4458H29.5181V52.406Z" fill="black"/>
<path d="M34.5783 53.1325C42.9624 53.1325 49.759 46.3359 49.759 37.9518C49.759 29.5677 42.9624 22.7711 34.5783 22.7711C26.1942 22.7711 19.3976 29.5677 19.3976 37.9518C19.3976 46.3359 26.1942 53.1325 34.5783 53.1325Z" fill="#FDB797"/>
<path opacity="0.1" d="M23.6145 24.1206C23.6145 24.1206 30.0158 37.3204 48.0723 29.6548L43.8683 22.9581L36.416 20.241L23.6145 24.1206Z" fill="black"/>
<path d="M23.6145 23.8451C23.6145 23.8451 30.0158 36.1009 48.0723 28.9816L43.8683 22.7638L36.416 20.241L23.6145 23.8451Z" fill="#333333"/>
<path d="M23.0942 23.3499C23.5342 21.9859 24.2946 20.7477 25.3115 19.7391C28.3569 16.7241 33.3498 16.0884 35.9106 12.6506C36.5239 13.6047 36.0496 15.0718 34.9905 15.4813C37.444 15.4649 40.287 15.2499 41.6742 13.229C42.0171 14.0283 42.1263 14.9086 41.9893 15.7676C41.8524 16.6266 41.4747 17.4291 40.9003 18.0816C43.0747 18.184 45.3984 19.6582 45.5354 21.8337C45.6294 23.2833 44.7176 24.6552 43.5327 25.4865C42.3479 26.3177 40.9044 26.6996 39.4886 27.0119C35.3545 27.9261 20.3964 31.7518 23.0942 23.3499Z" fill="#333333"/>
<path d="M19.3976 41.3253C20.3291 41.3253 21.0843 40.0037 21.0843 38.3735C21.0843 36.7433 20.3291 35.4217 19.3976 35.4217C18.466 35.4217 17.7108 36.7433 17.7108 38.3735C17.7108 40.0037 18.466 41.3253 19.3976 41.3253Z" fill="#FDB797"/>
<path d="M49.759 41.3253C50.6906 41.3253 51.4458 40.0037 51.4458 38.3735C51.4458 36.7433 50.6906 35.4217 49.759 35.4217C48.8274 35.4217 48.0723 36.7433 48.0723 38.3735C48.0723 40.0037 48.8274 41.3253 49.759 41.3253Z" fill="#FDB797"/>
</svg>
