<svg width="70" height="70" viewBox="0 0 70 70" fill="none" xmlns="http://www.w3.org/2000/svg">
<path d="M70 35C70.0062 39.7379 69.0472 44.4274 67.1813 48.7825L67.0654 49.0497C63.9092 56.2297 58.4365 62.1441 51.5225 65.847C44.6085 69.5498 36.6524 70.8272 28.9268 69.4749C28.7166 69.4377 28.5067 69.399 28.2972 69.359C26.1323 68.9393 24.0123 68.3141 21.9661 67.492C21.6337 67.3584 21.3037 67.22 20.9762 67.0767C20.7525 66.9794 20.5288 66.8789 20.3072 66.7754C14.2453 63.9659 9.11295 59.482 5.51501 53.8521C1.91708 48.2223 0.00355867 41.6813 0 35C0 15.6703 15.6703 0 35 0C54.3297 0 70 15.6703 70 35Z" fill="#FF7F50"/>
<path opacity="0.2" d="M28.9267 69.4749C28.7165 69.4377 28.5067 69.399 28.2971 69.359C28.1605 65.392 27.6914 57.2498 26.0915 48.7224C25.2165 44.0554 24.0019 39.2714 22.3171 34.9948C21.7399 33.515 21.0807 32.0686 20.3424 30.6622C18.64 27.447 16.5753 24.7402 14.0714 22.9063L14.44 22.4031C16.5224 23.9294 18.3939 26.0722 20.0545 28.8315C20.5526 29.6578 21.031 30.5394 21.4898 31.4762C21.9816 32.4785 22.4507 33.5427 22.897 34.6686C23.1818 35.3852 23.4569 36.1266 23.7223 36.8929C24.8779 40.2199 25.8603 44.0161 26.6693 48.2813C26.8485 49.2236 27.019 50.1891 27.1809 51.1776C28.4349 58.8372 28.8128 65.919 28.9267 69.4749Z" fill="black"/>
<path opacity="0.2" d="M20.9761 67.0767C20.7524 66.9794 20.5288 66.8789 20.3072 66.7754C20.0908 64.4248 19.6931 61.5088 18.9662 58.7409C18.6478 57.4978 18.2391 56.2796 17.7433 55.096C16.9138 53.1544 15.84 51.5038 14.4514 50.4859L14.8201 49.9837C16.2739 51.0482 17.3953 52.7309 18.2621 54.6994C19.2385 56.9174 19.8899 59.4989 20.3237 61.9655C20.6458 63.7973 20.8488 65.5669 20.9761 67.0767Z" fill="black"/>
<path opacity="0.2" d="M10.5892 22.8919C12.3099 22.8919 13.7049 21.4969 13.7049 19.7762C13.7049 18.0555 12.3099 16.6605 10.5892 16.6605C8.86845 16.6605 7.47351 18.0555 7.47351 19.7762C7.47351 21.4969 8.86845 22.8919 10.5892 22.8919Z" fill="black"/>
<path opacity="0.2" d="M11.5926 49.7123C13.3134 49.7123 14.7083 48.3174 14.7083 46.5966C14.7083 44.8759 13.3134 43.481 11.5926 43.481C9.87187 43.481 8.47693 44.8759 8.47693 46.5966C8.47693 48.3174 9.87187 49.7123 11.5926 49.7123Z" fill="black"/>
<path opacity="0.2" d="M22.9586 25.0096C22.2979 28.7371 23.7564 32.1123 23.7564 32.1123C23.7564 32.1123 26.2861 29.444 26.9468 25.7165C27.6075 21.989 26.149 18.6138 26.149 18.6138C26.149 18.6138 23.6193 21.2821 22.9586 25.0096Z" fill="black"/>
<path opacity="0.2" d="M12.604 33.8579C16.1594 35.158 19.732 34.3237 19.732 34.3237C19.732 34.3237 17.5403 31.3816 13.9849 30.0815C10.4295 28.7814 6.85681 29.6157 6.85681 29.6157C6.85681 29.6157 9.04857 32.5579 12.604 33.8579Z" fill="black"/>
<path opacity="0.2" d="M12.0011 57.6084C14.4931 58.5196 17.0008 57.9252 17.0008 57.9252C17.0008 57.9252 15.4681 55.8533 12.976 54.9421C10.484 54.0308 7.97632 54.6253 7.97632 54.6253C7.97632 54.6253 9.50903 56.6971 12.0011 57.6084Z" fill="black"/>
<path d="M35.2885 42.745C42.8243 42.745 48.9333 36.636 48.9333 29.1001C48.9333 21.5643 42.8243 15.4553 35.2885 15.4553C27.7527 15.4553 21.6437 21.5643 21.6437 29.1001C21.6437 36.636 27.7527 42.745 35.2885 42.745Z" fill="#FDB797"/>
<path d="M29.9585 39.5469C29.9585 39.5469 31.6641 47.6486 31.6641 48.5014C31.6641 49.3542 39.7657 53.1918 39.7657 53.1918L47.0145 51.9126L49.573 44.2374C49.573 44.2374 45.3089 37.8413 45.3089 35.2829L29.9585 39.5469Z" fill="#FDB797"/>
<path d="M67.5416 48.7769L67.4256 49.044C64.2695 56.2241 58.7968 62.1385 51.8828 65.8413C44.9688 69.5442 37.0128 70.8216 29.2871 69.4693C29.0769 69.432 28.867 69.3934 28.6575 69.3533C26.4926 68.9336 24.3727 68.3085 22.3265 67.4863C21.9941 67.3527 21.6641 67.2143 21.3365 67.0711C21.1128 66.9737 20.8892 66.8733 20.6676 66.7697C18.659 65.8392 16.7433 64.72 14.9464 63.4272L13.329 58.7353L14.2381 58.0415L16.1083 56.6136L18.1037 55.0903L18.6225 54.6937L26.4519 48.7168L27.0297 48.2757L31.0992 45.1692L31.1003 45.1682C31.1003 45.1682 35.5011 52.339 41.8974 50.2069C48.2937 48.0748 48.1539 41.9612 48.1539 41.9612L67.5416 48.7769Z" fill="#2F2E41"/>
<path d="M23.4558 18.1069C23.4558 18.1069 27.7879 8.72055 36.0913 10.8866C44.3946 13.0527 49.0878 16.3019 49.4488 19.551C49.8099 22.8001 49.2683 27.6738 49.2683 27.6738C49.2683 27.6738 48.3658 20.9951 42.5896 22.4391C36.8133 23.8832 27.7879 22.8001 27.7879 22.8001L26.3439 35.7967C26.3439 35.7967 24.7193 33.4501 22.9142 34.8941C21.1092 36.3382 17.6795 20.9951 23.4558 18.1069Z" fill="#2F2E41"/>
<path d="M22.3265 67.4863C21.9941 67.3527 21.6641 67.2143 21.3365 67.0711C21.1129 66.9737 20.8892 66.8733 20.6676 66.7697C17.3456 65.2293 14.2853 63.1784 11.5977 60.6913C12.5493 59.3949 13.329 58.7353 13.329 58.7353H19.7253L20.6842 61.9598L22.3265 67.4863Z" fill="#2F2E41"/>
<path d="M61.9385 48.0748L67.4256 49.044C65.9572 52.3892 63.974 55.4838 61.5481 58.2155L61.9385 48.0748Z" fill="#2F2E41"/>
</svg>
