<svg width="70" height="70" viewBox="0 0 70 70" fill="none" xmlns="http://www.w3.org/2000/svg">
<path d="M70 35C70.0054 39.4962 69.1423 43.9511 67.4578 48.1198C67.4537 48.1291 67.4506 48.1374 67.4464 48.1467V48.1478C66.3142 50.9392 64.8248 53.572 63.0155 55.9803C62.6665 56.4463 62.3065 56.9026 61.9355 57.3493C61.7998 57.5129 61.6621 57.6754 61.5244 57.8359C60.8151 58.6592 60.0688 59.4479 59.2856 60.2021C59.1034 60.3781 58.9191 60.5521 58.7327 60.724C58.6892 60.7643 58.6457 60.8037 58.6022 60.8441C57.69 61.6776 56.7343 62.4623 55.739 63.1947C55.0711 63.6886 54.3856 64.1577 53.6825 64.6019C53.5282 64.7003 53.3729 64.7969 53.2166 64.8919C52.9453 65.0575 52.6715 65.2194 52.3954 65.3775C52.0351 65.5846 51.6702 65.7852 51.3009 65.9791C51.1518 66.0589 51.0016 66.1355 50.8515 66.2121C50.632 66.325 50.4114 66.4337 50.1888 66.5404C50.1504 66.559 50.1121 66.5777 50.0738 66.5953C49.9288 66.6657 49.7818 66.734 49.6348 66.8024C47.7198 67.6856 45.7282 68.3923 43.6848 68.9138C43.6734 68.9169 43.663 68.9189 43.6516 68.922C43.5181 68.9562 43.3834 68.9893 43.2488 69.0214C43.1484 69.0463 43.0469 69.0701 42.9454 69.0929C42.9329 69.097 42.9201 69.1001 42.9071 69.1022C42.699 69.1509 42.4908 69.1975 42.2806 69.2399C42.1626 69.2648 42.0445 69.2896 41.9265 69.3135C41.855 69.329 41.7826 69.3425 41.7111 69.3559C41.621 69.3735 41.532 69.3901 41.4419 69.4077C41.3922 69.418 41.3425 69.4263 41.2917 69.4346C41.1778 69.4553 41.0639 69.476 40.951 69.4957C40.7584 69.5288 40.5638 69.5609 40.3701 69.5899C40.2293 69.6117 40.0895 69.6324 39.9487 69.6521C39.783 69.6759 39.6173 69.6976 39.4506 69.7183C39.405 69.7256 39.3595 69.7308 39.3139 69.7359C39.2549 69.7432 39.1959 69.7504 39.1368 69.7577C39.0178 69.7722 38.8987 69.7856 38.7786 69.7981C38.7164 69.8053 38.6553 69.8115 38.5932 69.8177C38.4752 69.8302 38.3571 69.8416 38.2391 69.8519C38.0868 69.8664 37.9346 69.8788 37.7814 69.8913C37.595 69.9058 37.4096 69.9192 37.2222 69.9306C37.1021 69.9379 36.982 69.9451 36.8608 69.9513C36.5522 69.9679 36.2437 69.9793 35.933 69.9876C35.7787 69.9917 35.6234 69.9948 35.4681 69.9969H35.465C35.3107 69.999 35.1553 70 35 70C33.4259 70.0007 31.8536 69.8955 30.2937 69.6852C29.1494 69.532 28.0235 69.3242 26.9158 69.0618C26.8713 69.0515 26.8268 69.0411 26.7833 69.0297C26.6715 69.0038 26.5607 68.9759 26.4499 68.9479C26.3515 68.9231 26.2542 68.8972 26.1558 68.8713C23.6205 68.2115 21.168 67.267 18.8451 66.0558C18.8338 66.0496 18.8213 66.0433 18.8099 66.0371C18.7426 66.0019 18.6764 65.9678 18.6101 65.9315C18.4641 65.8549 18.3188 65.7769 18.1741 65.6975C17.3509 65.245 16.5487 64.761 15.7676 64.2457C15.5667 64.1142 15.3679 63.9806 15.1712 63.845C15.108 63.8015 15.0459 63.758 14.9838 63.7145C14.9185 63.6689 14.8533 63.6234 14.7891 63.5778C14.6182 63.4567 14.4484 63.3341 14.2796 63.2102C13.5807 62.6966 12.9024 62.1578 12.2449 61.5938C9.9142 59.5978 7.85472 57.3054 6.11883 54.775C5.51306 53.8927 4.94767 52.9822 4.42267 52.0433C1.51323 46.8347 -0.00963248 40.9661 4.58452e-05 35C4.58452e-05 15.6703 15.6703 0 35 0C54.3297 0 70 15.6703 70 35Z" fill="#FF7F50"/>
<path opacity="0.2" d="M40.6283 69.0298C40.7401 69.0039 40.8509 68.9759 40.9617 68.948C41.0601 68.9231 41.1574 68.8972 41.2558 68.8713C41.261 68.6653 41.2682 68.4385 41.2755 68.1931C41.3366 66.2712 41.4805 63.1771 41.8202 59.4493C41.8388 59.2494 41.8574 59.0482 41.8761 58.8456C41.9972 57.5823 42.1391 56.2537 42.3089 54.8765C42.3141 54.831 42.3203 54.7864 42.3255 54.7409C42.4632 53.6246 42.6196 52.4783 42.7956 51.3102C42.9188 50.4932 43.0521 49.6672 43.1953 48.8323C43.2057 48.7743 43.216 48.7153 43.2264 48.6573C43.2678 48.416 43.3102 48.1758 43.3537 47.9335C43.4749 47.2594 43.6043 46.5811 43.74 45.9028C44.2173 43.517 44.7858 41.1167 45.4641 38.7817C46.1531 36.36 47.0016 33.9867 48.0042 31.6771C48.7817 29.883 49.7079 28.157 50.7731 26.5172C50.7886 26.4934 50.8042 26.4706 50.8197 26.4468C52.1814 24.3954 53.7377 22.6548 55.5147 21.3531L55.146 20.8499C53.4437 22.0977 51.8821 23.7579 50.4614 25.8307C50.4542 25.841 50.448 25.8503 50.4407 25.8607C49.3724 27.4449 48.4399 29.1167 47.6531 30.858C46.5997 33.1873 45.7111 35.5876 44.994 38.0413C44.3147 40.3215 43.7055 42.7918 43.1663 45.4524C42.9768 46.3895 42.796 47.3498 42.6237 48.3332C42.5947 48.5009 42.5657 48.6687 42.5367 48.8375C42.5367 48.8395 42.5357 48.8426 42.5357 48.8447C42.4912 49.1036 42.4487 49.3625 42.4052 49.6244C42.2975 50.2841 42.196 50.9385 42.1008 51.5878C41.9537 52.5881 41.8208 53.5711 41.7021 54.5369C41.6628 54.8558 41.6248 55.1723 41.5882 55.4864C41.5364 55.9296 41.4874 56.367 41.4412 56.7984C41.3759 57.399 41.3162 57.9868 41.262 58.5619L41.2465 58.7203C41.2382 58.8114 41.2299 58.9025 41.2216 58.9926C40.8012 63.5271 40.6697 67.1897 40.6283 69.0298Z" fill="black"/>
<path opacity="0.2" d="M48.5665 66.0558C48.5779 66.0496 48.5903 66.0433 48.6017 66.0371C48.815 65.9263 49.0263 65.8135 49.2375 65.6975C49.3069 64.8712 49.4001 63.963 49.5223 63.0083C49.5482 62.8115 49.5741 62.6117 49.6031 62.4108C49.6176 62.3031 49.6331 62.1944 49.6486 62.0846C49.7708 61.2438 49.9158 60.376 50.0897 59.5041C50.797 55.9462 51.9713 52.3095 53.9211 50.0645C54.0257 49.9433 54.1323 49.8274 54.2432 49.7145C54.5177 49.4292 54.816 49.1676 55.1347 48.9327L54.7661 48.4305C54.3211 48.7595 53.9116 49.134 53.5442 49.5478C53.4148 49.6917 53.2884 49.8415 53.1652 49.9972C51.3707 52.2556 50.2503 55.5993 49.5523 58.9098C49.3701 59.7734 49.2168 60.636 49.0864 61.4757C49.0532 61.6953 49.0215 61.9127 48.9911 62.1281C48.7892 63.5509 48.6556 64.895 48.5665 66.0558Z" fill="black"/>
<path opacity="0.2" d="M58.9969 21.3386C60.7176 21.3386 62.1126 19.9437 62.1126 18.223C62.1126 16.5022 60.7176 15.1073 58.9969 15.1073C57.2762 15.1073 55.8812 16.5022 55.8812 18.223C55.8812 19.9437 57.2762 21.3386 58.9969 21.3386Z" fill="black"/>
<path opacity="0.2" d="M57.9935 48.1591C59.7142 48.1591 61.1092 46.7642 61.1092 45.0434C61.1092 43.3227 59.7142 41.9277 57.9935 41.9277C56.2727 41.9277 54.8778 43.3227 54.8778 45.0434C54.8778 46.7642 56.2727 48.1591 57.9935 48.1591Z" fill="black"/>
<path opacity="0.2" d="M46.6276 23.4563C47.2883 27.1839 45.8298 30.5591 45.8298 30.5591C45.8298 30.5591 43.3001 27.8908 42.6394 24.1632C41.9787 20.4357 43.4372 17.0605 43.4372 17.0605C43.4372 17.0605 45.9669 19.7288 46.6276 23.4563Z" fill="black"/>
<path opacity="0.2" d="M56.9823 32.3047C53.4269 33.6048 49.8542 32.7705 49.8542 32.7705C49.8542 32.7705 52.046 29.8283 55.6014 28.5283C59.1568 27.2282 62.7294 28.0625 62.7294 28.0625C62.7294 28.0625 60.5377 31.0046 56.9823 32.3047Z" fill="black"/>
<path opacity="0.2" d="M57.5852 56.0552C55.0931 56.9664 52.5854 56.372 52.5854 56.372C52.5854 56.372 54.1182 54.3001 56.6102 53.3889C59.1022 52.4776 61.6099 53.0721 61.6099 53.0721C61.6099 53.0721 60.0772 55.1439 57.5852 56.0552Z" fill="black"/>
<path d="M45.5583 55.5309L45.6847 55.5962C45.6723 55.7308 45.6422 55.8136 45.5583 55.5309Z" fill="#2F2E41"/>
<path d="M45.7251 55.5744C45.7261 55.5889 45.7282 55.6044 45.7292 55.6189L45.6847 55.5961C45.6857 55.5827 45.6868 55.5682 45.6888 55.5537C45.6992 55.3725 45.6868 55.1581 45.7251 55.5744Z" fill="#2F2E41"/>
<path d="M23.7882 50.6024C23.7882 50.6024 15.9998 51.2275 18.0567 65.154C19.1241 66.1589 20.3838 66.946 21.7631 67.4699L26.1445 52.9183L23.7882 50.6024Z" fill="#FDA57D"/>
<path d="M47.055 50.6024C47.055 50.6024 54.8435 51.2275 52.7865 65.154C51.7192 66.1589 50.4595 66.946 49.0802 67.4699L44.6987 52.9183L47.055 50.6024Z" fill="#FDA57D"/>
<path d="M23.9505 27.8313C23.9505 27.8313 20.4609 38.3677 18.5542 37.3813C18.5542 37.3813 36.9196 53.8456 53.1325 37.3813C53.1325 37.3813 50.2784 32.1131 46.1533 27.8313H23.9505Z" fill="#333333"/>
<path d="M35.8434 41.3253C43.5288 41.3253 49.759 35.0951 49.759 27.4096C49.759 19.7242 43.5288 13.494 35.8434 13.494C28.158 13.494 21.9277 19.7242 21.9277 27.4096C21.9277 35.0951 28.158 41.3253 35.8434 41.3253Z" fill="#333333"/>
<path opacity="0.1" d="M47.4777 50.6024H23.0452L20.7504 60.2044C20.7504 60.2044 19.4105 64.6458 21.0769 66.5976C22.7433 68.5494 38.3263 72.9909 49.7602 66.9179C50.7577 64.3609 50.8724 61.5534 50.0867 58.9263C48.7837 54.4517 49.7602 58.6061 49.7602 58.6061L47.4777 50.6024Z" fill="black"/>
<path opacity="0.1" d="M47.5645 50.6024H23.7927L21.5796 60.2044C21.5796 60.2044 20.2769 64.6458 21.897 66.5976C23.5172 68.5494 38.6673 72.9909 49.7836 66.9179C50.7534 64.3609 50.8649 61.5534 50.101 58.9263C48.8343 54.4517 49.7836 58.6061 49.7836 58.6061L47.5645 50.6024Z" fill="black"/>
<path d="M47.4839 50.6024H23.039L20.7504 60.2044C20.7504 60.2044 19.4105 64.6458 21.0769 66.5976C22.7433 68.5494 38.3263 72.9909 49.7602 66.9179C50.7577 64.3609 50.8724 61.5534 50.0867 58.9263C48.7837 54.4517 49.7602 58.6061 49.7602 58.6061L47.4839 50.6024Z" fill="#2F2E41"/>
<path opacity="0.1" d="M30.3613 43.012H40.4818V50.9761C40.4818 51.5915 40.3556 52.201 40.1106 52.7696C39.8655 53.3382 39.5062 53.8548 39.0534 54.29C38.6005 54.7252 38.0629 55.0704 37.4712 55.3059C36.8795 55.5414 36.2453 55.6626 35.6049 55.6626H35.2383C34.5978 55.6626 33.9637 55.5414 33.372 55.3059C32.7803 55.0704 32.2426 54.7252 31.7898 54.29C31.3369 53.8548 30.9776 53.3382 30.7326 52.7696C30.4875 52.201 30.3613 51.5915 30.3613 50.9761V43.012Z" fill="black"/>
<path d="M30.3613 42.1687H40.4818V50.1327C40.4818 51.3757 39.968 52.5677 39.0534 53.4466C38.1388 54.3255 36.8983 54.8193 35.6049 54.8193H35.2383C33.9448 54.8193 32.7044 54.3255 31.7898 53.4466C30.8751 52.5677 30.3613 51.3757 30.3613 50.1327V42.1687Z" fill="#FDA57D"/>
<path opacity="0.1" d="M31.2048 43.971C34.1946 44.9335 37.4859 44.9416 40.4819 43.9936V43.012H31.2048V43.971Z" fill="black"/>
<path d="M35.8434 44.6988C43.5288 44.6988 49.759 38.2798 49.759 30.3615C49.759 22.4432 43.5288 16.0241 35.8434 16.0241C28.158 16.0241 21.9277 22.4432 21.9277 30.3615C21.9277 38.2798 28.158 44.6988 35.8434 44.6988Z" fill="#FDA57D"/>
<path d="M21.9277 25.3012H48.9157C48.9157 25.3012 46.6104 14.5346 36.4063 15.2113C26.2022 15.8881 21.9277 25.3012 21.9277 25.3012Z" fill="#333333"/>
<path d="M21.9277 32.0482C22.3935 32.0482 22.7711 30.9154 22.7711 29.5181C22.7711 28.1207 22.3935 26.988 21.9277 26.988C21.4619 26.988 21.0844 28.1207 21.0844 29.5181C21.0844 30.9154 21.4619 32.0482 21.9277 32.0482Z" fill="#FDA57D"/>
<path d="M49.3373 32.0482C50.036 32.0482 50.6024 30.9154 50.6024 29.5181C50.6024 28.1207 50.036 26.988 49.3373 26.988C48.6387 26.988 48.0723 28.1207 48.0723 29.5181C48.0723 30.9154 48.6387 32.0482 49.3373 32.0482Z" fill="#FDA57D"/>
<path opacity="0.1" d="M21.9277 25.3012H48.9157C48.9157 25.3012 46.6104 14.5346 36.4063 15.2113C26.2022 15.8881 21.9277 25.3012 21.9277 25.3012Z" fill="black"/>
</svg>
